<?xml version="1.0" encoding="UTF-8" standalone="no"?>
<!-- Created with Inkscape (http://www.inkscape.org/) -->

<svg
   xmlns:dc="http://purl.org/dc/elements/1.1/"
   xmlns:cc="http://creativecommons.org/ns#"
   xmlns:rdf="http://www.w3.org/1999/02/22-rdf-syntax-ns#"
   xmlns:svg="http://www.w3.org/2000/svg"
   xmlns="http://www.w3.org/2000/svg"
   xmlns:xlink="http://www.w3.org/1999/xlink"
   xmlns:sodipodi="http://sodipodi.sourceforge.net/DTD/sodipodi-0.dtd"
   xmlns:inkscape="http://www.inkscape.org/namespaces/inkscape"
   id="svg2985"
   version="1.1"
   inkscape:version="0.48.5 r10040"
   width="200"
   height="99.441292"
   xml:space="preserve"
   sodipodi:docname="BeIN_Sport.svg"><metadata
     id="metadata2991"><rdf:RDF><cc:Work
         rdf:about=""><dc:format>image/svg+xml</dc:format><dc:type
           rdf:resource="http://purl.org/dc/dcmitype/StillImage" /><dc:title></dc:title></cc:Work></rdf:RDF></metadata><defs
     id="defs2989"><linearGradient
       id="linearGradient4159"><stop
         id="stop4161"
         offset="0"
         style="stop-color:#000000;stop-opacity:1" /><stop
         style="stop-color:#010103;stop-opacity:1"
         offset="0.09722222"
         id="stop4163" /><stop
         style="stop-color:#050007;stop-opacity:1"
         offset="0.2"
         id="stop4165" /><stop
         style="stop-color:#120017;stop-opacity:1"
         offset="0.30000001"
         id="stop4167" /><stop
         style="stop-color:#15021e;stop-opacity:1"
         offset="0.40000001"
         id="stop4169" /><stop
         style="stop-color:#1e082c;stop-opacity:1"
         offset="0.5"
         id="stop4171" /><stop
         style="stop-color:#2c123f;stop-opacity:1"
         offset="0.59782988"
         id="stop4173" /><stop
         style="stop-color:#461e67;stop-opacity:1"
         offset="0.69999999"
         id="stop4175" /><stop
         style="stop-color:#4e2175;stop-opacity:1"
         offset="0.80000001"
         id="stop4177" /><stop
         style="stop-color:#52217a;stop-opacity:1"
         offset="0.89999998"
         id="stop4179" /><stop
         id="stop4181"
         offset="1"
         style="stop-color:#562380;stop-opacity:1" /></linearGradient><linearGradient
       id="linearGradient4119"><stop
         style="stop-color:#1a0526;stop-opacity:1"
         offset="0"
         id="stop4121" /><stop
         id="stop4143"
         offset="0.09722222"
         style="stop-color:#200a30;stop-opacity:1" /><stop
         id="stop4141"
         offset="0.2"
         style="stop-color:#230d34;stop-opacity:1" /><stop
         id="stop4139"
         offset="0.30000001"
         style="stop-color:#2c1241;stop-opacity:1" /><stop
         id="stop4137"
         offset="0.40000001"
         style="stop-color:#2f1545;stop-opacity:1" /><stop
         id="stop4135"
         offset="0.5"
         style="stop-color:#371a54;stop-opacity:1" /><stop
         id="stop4133"
         offset="0.59782988"
         style="stop-color:#3d1a5a;stop-opacity:1" /><stop
         id="stop4131"
         offset="0.69999999"
         style="stop-color:#461e67;stop-opacity:1" /><stop
         id="stop4129"
         offset="0.80000001"
         style="stop-color:#482069;stop-opacity:1" /><stop
         id="stop4127"
         offset="0.89999998"
         style="stop-color:#55227e;stop-opacity:1" /><stop
         style="stop-color:#562380;stop-opacity:1"
         offset="1"
         id="stop4123" /></linearGradient><linearGradient
       inkscape:collect="always"
       xlink:href="#linearGradient4119"
       id="linearGradient4125"
       x1="2.6620131"
       y1="0.70762712"
       x2="3.2284815"
       y2="0.70762712"
       gradientUnits="userSpaceOnUse" /><linearGradient
       inkscape:collect="always"
       xlink:href="#linearGradient4159"
       id="linearGradient4157"
       x1="2.0917463"
       y1="0.90485698"
       x2="3.2295582"
       y2="0.90485698"
       gradientUnits="userSpaceOnUse" /><linearGradient
       inkscape:collect="always"
       xlink:href="#linearGradient4159"
       id="linearGradient3067"
       gradientUnits="userSpaceOnUse"
       x1="2.0917463"
       y1="0.90485698"
       x2="3.2295582"
       y2="0.90485698" /><linearGradient
       inkscape:collect="always"
       xlink:href="#linearGradient4119"
       id="linearGradient3370"
       x1="2.1395321"
       y1="0.64068365"
       x2="2.1853244"
       y2="0.64068365"
       gradientUnits="userSpaceOnUse" /><linearGradient
       inkscape:collect="always"
       xlink:href="#linearGradient4119"
       id="linearGradient3372"
       x1="2.1395321"
       y1="0.64068365"
       x2="2.1853244"
       y2="0.64068365"
       gradientUnits="userSpaceOnUse" /><linearGradient
       inkscape:collect="always"
       xlink:href="#linearGradient4119"
       id="linearGradient3374"
       x1="2.1395321"
       y1="0.64068365"
       x2="2.1853244"
       y2="0.64068365"
       gradientUnits="userSpaceOnUse" /><linearGradient
       inkscape:collect="always"
       xlink:href="#linearGradient4119"
       id="linearGradient3376"
       x1="2.1395321"
       y1="0.64068365"
       x2="2.1853244"
       y2="0.64068365"
       gradientUnits="userSpaceOnUse" /><linearGradient
       inkscape:collect="always"
       xlink:href="#linearGradient4119"
       id="linearGradient3378"
       x1="2.1395321"
       y1="0.64068365"
       x2="2.1853244"
       y2="0.64068365"
       gradientUnits="userSpaceOnUse" /><linearGradient
       inkscape:collect="always"
       xlink:href="#linearGradient4119"
       id="linearGradient3380"
       x1="2.1395321"
       y1="0.64068365"
       x2="2.1853244"
       y2="0.64068365"
       gradientUnits="userSpaceOnUse" /><linearGradient
       inkscape:collect="always"
       xlink:href="#linearGradient4119"
       id="linearGradient3382"
       x1="2.1395321"
       y1="0.64068365"
       x2="2.1853244"
       y2="0.64068365"
       gradientUnits="userSpaceOnUse" /><linearGradient
       inkscape:collect="always"
       xlink:href="#linearGradient4119"
       id="linearGradient3384"
       x1="2.1395321"
       y1="0.64068365"
       x2="2.1853244"
       y2="0.64068365"
       gradientUnits="userSpaceOnUse" /><linearGradient
       inkscape:collect="always"
       xlink:href="#linearGradient4119"
       id="linearGradient3386"
       x1="2.1395321"
       y1="0.64068365"
       x2="2.1853244"
       y2="0.64068365"
       gradientUnits="userSpaceOnUse" /><linearGradient
       inkscape:collect="always"
       xlink:href="#linearGradient4119"
       id="linearGradient3399"
       gradientUnits="userSpaceOnUse"
       x1="2.1395321"
       y1="0.64068365"
       x2="2.1853244"
       y2="0.64068365" /><linearGradient
       inkscape:collect="always"
       xlink:href="#linearGradient4119"
       id="linearGradient3401"
       gradientUnits="userSpaceOnUse"
       x1="2.1395321"
       y1="0.64068365"
       x2="2.1853244"
       y2="0.64068365" /><linearGradient
       inkscape:collect="always"
       xlink:href="#linearGradient4119"
       id="linearGradient3403"
       gradientUnits="userSpaceOnUse"
       x1="2.1395321"
       y1="0.64068365"
       x2="2.1853244"
       y2="0.64068365" /><linearGradient
       inkscape:collect="always"
       xlink:href="#linearGradient4119"
       id="linearGradient3405"
       gradientUnits="userSpaceOnUse"
       x1="2.1395321"
       y1="0.64068365"
       x2="2.1853244"
       y2="0.64068365" /><linearGradient
       inkscape:collect="always"
       xlink:href="#linearGradient4119"
       id="linearGradient3407"
       gradientUnits="userSpaceOnUse"
       x1="2.1395321"
       y1="0.64068365"
       x2="2.1853244"
       y2="0.64068365" /><linearGradient
       inkscape:collect="always"
       xlink:href="#linearGradient4119"
       id="linearGradient3409"
       gradientUnits="userSpaceOnUse"
       x1="2.1395321"
       y1="0.64068365"
       x2="2.1853244"
       y2="0.64068365" /><linearGradient
       inkscape:collect="always"
       xlink:href="#linearGradient4119"
       id="linearGradient3411"
       gradientUnits="userSpaceOnUse"
       x1="2.1395321"
       y1="0.64068365"
       x2="2.1853244"
       y2="0.64068365" /><linearGradient
       inkscape:collect="always"
       xlink:href="#linearGradient4119"
       id="linearGradient3413"
       gradientUnits="userSpaceOnUse"
       x1="2.1395321"
       y1="0.64068365"
       x2="2.1853244"
       y2="0.64068365" /><linearGradient
       inkscape:collect="always"
       xlink:href="#linearGradient4119"
       id="linearGradient3415"
       gradientUnits="userSpaceOnUse"
       x1="2.1395321"
       y1="0.64068365"
       x2="2.1853244"
       y2="0.64068365" /></defs><sodipodi:namedview
     pagecolor="#ffffff"
     bordercolor="#666666"
     borderopacity="1"
     objecttolerance="10"
     gridtolerance="10"
     guidetolerance="10"
     inkscape:pageopacity="0"
     inkscape:pageshadow="2"
     inkscape:window-width="1366"
     inkscape:window-height="706"
     id="namedview2987"
     showgrid="false"
     fit-margin-top="0.1"
     fit-margin-left="0.1"
     fit-margin-right="0.1"
     fit-margin-bottom="0.1"
     inkscape:zoom="3.6905033"
     inkscape:cx="100"
     inkscape:cy="49.720646"
     inkscape:window-x="-8"
     inkscape:window-y="-8"
     inkscape:window-maximized="1"
     inkscape:current-layer="g3040"><inkscape:grid
       type="xygrid"
       id="grid2999"
       empspacing="5"
       visible="true"
       enabled="true"
       snapvisiblegridlinesonly="true" /></sodipodi:namedview><g
     id="g2993"
     inkscape:groupmode="layer"
     inkscape:label="DP25052012"
     transform="matrix(1.25,0,0,-1.25,-2221.2732,1111.2997)"><g
       id="g2995"
       transform="scale(850.32001,1218.96)"><g
         id="g3040"
         transform="matrix(25.043864,0,0,25.043864,-50.099163,-15.960334)"><g
           id="g3388"
           transform="matrix(0.16388711,0,0,0.16388711,1.7332667,0.56015138)"><path
             style="fill:url(#linearGradient3399);fill-opacity:1;stroke:none"
             d="m 2.1694217,0.63709031 c -6.618e-4,0 -0.00109,3.851e-4 -0.00109,7.5872e-4 l 0,0.005095 c 0,0.001673 0.00179,0.002746 0.00378,0.002746 0.00186,0 0.00287,-8.515e-4 0.00339,-0.001444 l 0.00451,-0.004931 c 4.238e-4,-4.504e-4 6.884e-4,-7.2225e-4 0.00152,-7.2225e-4 0.00106,0 0.00163,5.6377e-4 0.00163,0.001179 l 0,0.005184 c 0,3.9188e-4 4.878e-4,7.3663e-4 0.00106,7.3663e-4 6.26e-4,0 0.0011,-3.2549e-4 0.0011,-7.6859e-4 l 0,-0.005033 c 0,-0.002151 -0.00246,-0.002809 -0.00376,-0.002809 -0.00162,0 -0.00248,4.8564e-4 -0.00338,0.00145 l -0.00442,0.004813 c -4.754e-4,5.4637e-4 -8.486e-4,8.4515e-4 -0.00171,8.4515e-4 -3.51e-4,0 -0.00156,-2.1534e-4 -0.00156,-0.001234 l 0,-0.005112 c 0,-4.1889e-4 -4.998e-4,-7.5363e-4 -0.00107,-7.5363e-4 z"
             id="path3095"
             inkscape:connector-curvature="0"
             sodipodi:nodetypes="ccccccccccccccccccc" /><path
             style="fill:url(#linearGradient3401);fill-opacity:1;stroke:none"
             d="m 2.1624323,0.63373251 c -2e-7,6.37e-5 1.41e-5,1.3349e-4 1.41e-5,1.3349e-4 2.81e-5,1.6593e-4 1.997e-4,2.1884e-4 3.214e-4,2.1884e-4 1.938e-4,0 3.224e-4,-1.1188e-4 3.224e-4,-2.261e-4 0,-3.005e-5 -1.43e-5,-7.199e-5 -1.43e-5,-1.2224e-4 0,-3.0846e-4 4.252e-4,-7.3423e-4 0.0014,-7.3423e-4 9.095e-4,0 0.00136,3.9634e-4 0.00136,7.7898e-4 0,4.8193e-4 -7.342e-4,6.171e-4 -0.00144,6.3596e-4 -0.00138,4.08e-5 -0.00196,4.7732e-4 -0.00196,0.001011 0,6.1394e-4 6.245e-4,0.001247 0.00201,0.001247 0.0012,0 0.00193,-6.1284e-4 0.00193,-0.001249 l -5.9e-6,-7.609e-5 c -1.78e-5,-1.3155e-4 -1.604e-4,-2.1033e-4 -3.277e-4,-2.1033e-4 -1.91e-4,0 -3.151e-4,1.1789e-4 -3.151e-4,2.2202e-4 0,1.955e-5 6.5e-6,5.018e-5 6.5e-6,7.796e-5 0,4.2786e-4 -5.396e-4,7.8696e-4 -0.00132,7.8696e-4 -8.632e-4,0 -0.00135,-3.5027e-4 -0.00135,-8.0165e-4 0,-3.8819e-4 6.143e-4,-5.3401e-4 0.0013,-5.6042e-4 0.0011,-1.462e-5 0.00209,-3.3062e-4 0.00209,-0.001076 0,-5.3985e-4 -5.681e-4,-0.001236 -0.00202,-0.001236 -0.00126,0 -0.00203,5.8846e-4 -0.00203,0.001179 z"
             id="path3103"
             inkscape:connector-curvature="0"
             sodipodi:nodetypes="ccccccccccccccccccccc" /><path
             inkscape:connector-curvature="0"
             style="fill:url(#linearGradient3403);fill-opacity:1;stroke:none"
             d="m 2.1689857,0.63666304 c -0.00132,0 -0.00201,-6.3482e-4 -0.00201,-0.001311 l 0,-0.002596 c 0,-1.3408e-4 1.528e-4,-2.2451e-4 3.218e-4,-2.2451e-4 1.692e-4,0 3.195e-4,9.286e-5 3.195e-4,2.2011e-4 l 0,0.001083 0.00137,0 c 0.00109,0 0.00205,5.9599e-4 0.00205,0.001372 0,7.5245e-4 -7.919e-4,0.001456 -0.00205,0.001456 z m 1.09e-5,-4.4901e-4 c 8.761e-4,0 0.0014,-4.9096e-4 0.0014,-0.001008 0,-5.5966e-4 -7.388e-4,-9.2199e-4 -0.00138,-9.2199e-4 l -0.0014,0 0,0.001067 c 0,4.4623e-4 4.381e-4,8.6366e-4 0.00138,8.6366e-4 z"
             id="path3105" /><path
             id="path3110"
             d="m 2.1794052,0.63666304 c -0.00132,0 -0.00201,-6.3482e-4 -0.00201,-0.001311 l 0,-0.002596 c 0,-1.3408e-4 1.526e-4,-2.245e-4 3.217e-4,-2.245e-4 1.691e-4,0 3.198e-4,9.287e-5 3.198e-4,2.2013e-4 l 0,0.001083 0.00139,0 0.00105,-0.001199 c 5.9e-5,-6.487e-5 1.554e-4,-1.0713e-4 2.776e-4,-1.0713e-4 1.675e-4,0 3.169e-4,9.797e-5 3.169e-4,2.2366e-4 0,4.78e-5 -1.57e-5,8.194e-5 -5.79e-5,1.2902e-4 l -9.1e-4,0.001036 c 7.795e-4,2.0602e-4 0.00135,6.846e-4 0.00135,0.001289 0,7.5244e-4 -7.919e-4,0.001456 -0.00205,0.001456 z m 1.09e-5,-4.4901e-4 c 8.76e-4,0 0.0014,-4.9097e-4 0.0014,-0.001008 0,-5.5965e-4 -7.388e-4,-9.2198e-4 -0.00138,-9.2198e-4 l -0.0014,0 0,0.001067 c 0,4.4623e-4 4.38e-4,8.6366e-4 0.00138,8.6366e-4 z"
             style="fill:url(#linearGradient3405);fill-opacity:1;stroke:none"
             inkscape:connector-curvature="0"
             sodipodi:nodetypes="csssscccccccsccssscss" /><path
             inkscape:connector-curvature="0"
             style="fill:url(#linearGradient3407);fill-opacity:1;stroke:none"
             d="m 2.1741041,0.63666544 c -0.00191,0 -0.00297,-0.001122 -0.00297,-0.002037 0,-0.001304 0.00147,-0.002101 0.00299,-0.002101 0.00173,0 0.00294,0.00102 0.00294,0.002036 0,0.001253 -0.00143,0.002101 -0.00296,0.002101 z m -1.4e-6,-4.4861e-4 c 0.00111,0 0.00231,-6.0171e-4 0.00231,-0.001655 0,-8.1653e-4 -9.973e-4,-0.001585 -0.0023,-0.001585 -0.00128,0 -0.00235,6.875e-4 -0.00235,0.001664 0,7.3972e-4 8.945e-4,0.001576 0.00233,0.001576 z"
             id="path3112" /><path
             style="fill:url(#linearGradient3409);fill-opacity:1;stroke:none"
             d="m 2.1832711,0.63253295 c -1.948e-4,0 -3.219e-4,1.1167e-4 -3.219e-4,2.2456e-4 l 0,0.003308 -0.00134,0 c -1.803e-4,0 -3.15e-4,1.1245e-4 -3.15e-4,2.2146e-4 0,1.2338e-4 1.357e-4,2.2639e-4 3.246e-4,2.2639e-4 l 0.00332,0 c 2.064e-4,0 3.206e-4,-1.2154e-4 3.206e-4,-2.2364e-4 0,-1.2617e-4 -1.439e-4,-2.2421e-4 -3.22e-4,-2.2421e-4 l -0.00135,0 0,-0.0033 c 0,-1.3668e-4 -1.438e-4,-2.3304e-4 -3.207e-4,-2.3304e-4 z"
             id="path3117"
             inkscape:connector-curvature="0"
             sodipodi:nodetypes="cccccccccccc" /><path
             id="path3036"
             d="m 2.1399724,0.64839476 c -3.032e-4,0 -4.498e-4,-1.7377e-4 -4.498e-4,-3.3636e-4 l 0,-0.00646 c 0,-0.002822 0.00302,-0.004442 0.00617,-0.004442 0.00292,0 0.00606,0.001669 0.00606,0.004239 0,0.002631 -0.0031,0.004276 -0.00611,0.004276 -0.0036,0 -0.00522,-0.002025 -0.00522,-0.002025 l 0,0.004401 c 0,2.0235e-4 -1.9e-4,3.4894e-4 -4.572e-4,3.4894e-4 z m 0.00566,-0.00336 c 0.00288,0 0.00521,-0.001597 0.00521,-0.003617 0,-0.002007 -0.00233,-0.003627 -0.0052,-0.003627 -0.00296,0 -0.00521,0.001631 -0.00521,0.003713 0,0.001695 0.00209,0.003532 0.0052,0.003532 z"
             style="fill:url(#linearGradient3411);fill-opacity:1;stroke:none"
             inkscape:connector-curvature="0" /><path
             sodipodi:nodetypes="ccccccccccccccccc"
             inkscape:connector-curvature="0"
             id="path3085"
             d="m 2.1522825,0.64145751 c 0,0.002029 0.00242,0.004218 0.00614,0.004218 0.00342,0 0.00609,-0.001956 0.00609,-0.00425 0,-2.1822e-4 -2.332e-4,-3.3157e-4 -5.119e-4,-3.3157e-4 l -0.00647,0 c -2.358e-4,0 -4.438e-4,1.3803e-4 -4.438e-4,3.1524e-4 0,1.7956e-4 2.016e-4,3.1913e-4 4.655e-4,3.1913e-4 l 0.00603,0 c -1.558e-4,0.001607 -0.00214,0.003313 -0.00519,0.003313 -0.00299,0 -0.00521,-0.00175 -0.00521,-0.003552 0,-0.002148 0.00245,-0.003699 0.0052,-0.003699 0.00237,0 0.00379,0.001008 0.00442,0.001687 9.25e-5,1.1059e-4 2.297e-4,1.7417e-4 4.1e-4,1.7417e-4 2.838e-4,0 4.501e-4,-1.6347e-4 4.501e-4,-3.1638e-4 0,-7.994e-5 -3.52e-5,-1.4592e-4 -1.306e-4,-2.3969e-4 -9.906e-4,-0.001029 -0.00276,-0.001939 -0.00515,-0.001939 -0.00325,0 -0.00611,0.001834 -0.00611,0.004302 z"
             style="fill:url(#linearGradient3413);fill-opacity:1;stroke:none" /><path
             sodipodi:nodetypes="ccccccc"
             inkscape:connector-curvature="0"
             id="path3087"
             d="m 2.1662973,0.63709258 c -5.535e-4,0 -0.00108,3.1049e-4 -0.00108,7.508e-4 l 0,0.007106 c 0,3.9003e-4 4.616e-4,7.46e-4 0.00107,7.46e-4 5.803e-4,0 0.00108,-3.1385e-4 0.00108,-7.5673e-4 l 0,-0.007115 c 0,-4.1927e-4 -5.358e-4,-7.3133e-4 -0.00108,-7.3133e-4 z"
             style="fill:url(#linearGradient3415);fill-opacity:1;stroke:none" /></g></g></g></g></svg>