<?xml version="1.0" ?>
<!-- Uploaded to: SVG Repo, www.svgrepo.com, Generator: SVG Repo Mixer Tools -->
<svg fill="#000000" width="800px" height="800px" viewBox="0 0 64 64" id="Layer_1" version="1.1" xml:space="preserve" xmlns="http://www.w3.org/2000/svg" xmlns:xlink="http://www.w3.org/1999/xlink">
<g>
<path d="M51.1,5.9H12.9c-2.5,0-4.4,2-4.4,4.4v46.1c0,2.5,2,4.4,4.4,4.4h5.3h27.5h5.4c2.5,0,4.4-2,4.4-4.4V10.4   C55.6,7.9,53.6,5.9,51.1,5.9z M17.7,56.5V22.7c0-0.2,0.2-0.4,0.4-0.4H30v34.7H18.2C17.9,56.9,17.7,56.7,17.7,56.5z M34,56.9V22.3   h11.7c0.2,0,0.4,0.2,0.4,0.4v33.8c0,0.2-0.2,0.4-0.4,0.4H34z M51.6,56.5c0,0.2-0.2,0.4-0.4,0.4h-1c0-0.1,0-0.3,0-0.4V22.7   c0-2.5-2-4.4-4.4-4.4H18.2c-2.5,0-4.4,2-4.4,4.4v33.8c0,0.2,0,0.3,0,0.4h-0.9c-0.2,0-0.4-0.2-0.4-0.4V10.4c0-0.2,0.2-0.4,0.4-0.4   h38.3c0.2,0,0.4,0.2,0.4,0.4V56.5z"/>
<path d="M26.3,12.7c0,0-0.1-0.1-0.1-0.1c0,0,0,0,0,0c0,0,0-0.1-0.1-0.1c-0.1-0.2-0.2-0.3-0.3-0.4c-0.1-0.1-0.2-0.2-0.4-0.3   c0,0,0,0-0.1,0c-0.1-0.1-0.3-0.1-0.4-0.2c-0.1,0-0.1,0-0.2,0c0,0-0.1,0-0.1,0c-0.1,0-0.1,0-0.2,0c-0.2,0-0.4,0-0.6,0.1c0,0,0,0,0,0   c-0.1,0-0.3,0.1-0.4,0.2c0,0-0.1,0.1-0.1,0.1c0,0-0.1,0.1-0.1,0.1c0,0-0.1,0.1-0.1,0.1c-0.1,0.1-0.1,0.1-0.2,0.2   c0,0.1-0.1,0.1-0.1,0.2c0,0,0,0-0.1,0.1c0,0,0,0.1,0,0.1c0,0,0,0,0,0.1c-0.3,0.5-0.6,1.1-0.9,1.6c0,0.1-0.1,0.2-0.1,0.3   c-0.4,0.6-0.4,1.4,0,2c0.4,0.6,1,1,1.7,1c0.7,0,1.4,0,2,0c0.1,0,0.2,0,0.3,0c0.7,0,1.4-0.4,1.7-1c0.4-0.6,0.4-1.4,0-2   C27,13.9,26.6,13.3,26.3,12.7z"/>
<path d="M41.2,11.5c-0.7,0-1.4,0-2,0c-0.1,0-0.2,0-0.3,0c-0.7,0-1.4,0.4-1.7,1c-0.4,0.6-0.4,1.4,0,2c0.3,0.6,0.7,1.2,1,1.8   c0,0,0.1,0.1,0.1,0.1c0,0,0,0,0,0c0,0,0,0.1,0.1,0.1c0.1,0.2,0.2,0.3,0.3,0.4c0.1,0.1,0.2,0.2,0.4,0.3c0,0,0,0,0.1,0   c0.1,0.1,0.3,0.1,0.4,0.2c0.1,0,0.1,0,0.2,0c0,0,0.1,0,0.1,0c0.1,0,0.1,0,0.2,0c0.2,0,0.4,0,0.6-0.1c0,0,0,0,0,0   c0.1,0,0.3-0.1,0.4-0.2c0,0,0.1-0.1,0.1-0.1c0,0,0.1-0.1,0.1-0.1c0,0,0.1-0.1,0.1-0.1c0.1-0.1,0.1-0.1,0.2-0.2   c0-0.1,0.1-0.1,0.1-0.2c0,0,0,0,0.1-0.1c0,0,0-0.1,0-0.1c0,0,0,0,0-0.1c0.3-0.5,0.6-1.1,0.9-1.6c0-0.1,0.1-0.2,0.1-0.3   c0.4-0.6,0.4-1.4,0-2C42.6,11.9,41.9,11.5,41.2,11.5z"/>
</g>
</svg>