<svg xmlns="http://www.w3.org/2000/svg" xmlns:xlink="http://www.w3.org/1999/xlink" width="500" zoomAndPan="magnify" viewBox="0 0 375 374.999991" height="500" preserveAspectRatio="xMidYMid meet" version="1.2"><defs><clipPath id="49d14eb053"><path d="M 50.960938 50.960938 L 323.960938 50.960938 L 323.960938 323.960938 L 50.960938 323.960938 Z M 50.960938 50.960938 "/></clipPath></defs><g id="0c1a3453b3"><path style=" stroke:none;fill-rule:nonzero;fill:#000000;fill-opacity:1;" d="M 106.453125 139.730469 C 98.179688 153.761719 93.324219 170.03125 93.324219 187.460938 C 93.324219 204.894531 98.179688 221.164062 106.453125 235.195312 L 130.90625 210.738281 C 127.929688 203.550781 126.273438 195.699219 126.273438 187.460938 C 126.273438 179.226562 127.929688 171.375 130.90625 164.1875 L 106.453125 139.730469 "/><path style=" stroke:none;fill-rule:nonzero;fill:#000000;fill-opacity:1;" d="M 244.019531 164.1875 C 246.996094 171.375 248.652344 179.226562 248.652344 187.460938 C 248.652344 195.71875 247.015625 203.570312 244.039062 210.757812 L 268.492188 235.210938 C 276.800781 221.21875 281.601562 204.894531 281.601562 187.460938 C 281.601562 170.03125 276.746094 153.761719 268.472656 139.730469 L 244.019531 164.1875 "/><path style=" stroke:none;fill-rule:nonzero;fill:#000000;fill-opacity:1;" d="M 187.460938 126.273438 C 195.699219 126.273438 203.550781 127.929688 210.738281 130.90625 L 235.195312 106.453125 C 221.164062 98.179688 204.894531 93.324219 187.460938 93.324219 C 170.03125 93.324219 153.761719 98.179688 139.730469 106.453125 L 164.1875 130.90625 C 171.375 127.929688 179.226562 126.273438 187.460938 126.273438 "/><path style=" stroke:none;fill-rule:nonzero;fill:#000000;fill-opacity:1;" d="M 187.460938 248.652344 C 179.226562 248.652344 171.375 246.996094 164.1875 244.019531 L 139.730469 268.472656 C 153.761719 276.746094 170.03125 281.601562 187.460938 281.601562 C 204.894531 281.601562 221.164062 276.746094 235.195312 268.472656 L 210.738281 244.019531 C 203.550781 246.996094 195.699219 248.652344 187.460938 248.652344 "/><g clip-rule="nonzero" clip-path="url(#49d14eb053)"><path style=" stroke:none;fill-rule:nonzero;fill:#000000;fill-opacity:1;" d="M 269.429688 249.460938 L 239.496094 219.527344 C 234.496094 227.65625 227.65625 234.496094 219.527344 239.496094 L 249.460938 269.429688 L 216.273438 302.617188 C 208.570312 310.320312 198.347656 314.550781 187.460938 314.550781 C 176.578125 314.550781 166.355469 310.320312 158.652344 302.617188 L 125.464844 269.429688 L 155.398438 239.496094 C 147.269531 234.496094 140.429688 227.65625 135.429688 219.527344 L 105.496094 249.460938 L 72.308594 216.273438 C 64.605469 208.570312 60.375 198.347656 60.375 187.460938 C 60.375 176.578125 64.605469 166.355469 72.308594 158.652344 L 105.496094 125.464844 L 135.429688 155.398438 C 140.429688 147.269531 147.269531 140.429688 155.398438 135.429688 L 125.464844 105.496094 L 158.652344 72.308594 C 166.355469 64.625 176.578125 60.375 187.460938 60.375 C 198.347656 60.375 208.570312 64.625 216.273438 72.308594 L 249.460938 105.496094 L 219.527344 135.429688 C 227.65625 140.429688 234.496094 147.269531 239.496094 155.398438 L 269.429688 125.464844 L 302.617188 158.652344 C 310.300781 166.355469 314.550781 176.578125 314.550781 187.460938 C 314.550781 198.347656 310.300781 208.570312 302.617188 216.273438 Z M 267.332031 267.332031 C 265.566406 269.117188 262.460938 269.117188 260.675781 267.332031 L 250.507812 257.148438 C 252.824219 255.050781 255.050781 252.84375 257.164062 250.507812 L 267.332031 260.675781 C 269.171875 262.515625 269.171875 265.511719 267.332031 267.332031 Z M 107.59375 267.332031 C 105.753906 265.511719 105.753906 262.515625 107.59375 260.675781 L 117.761719 250.507812 C 119.875 252.824219 122.082031 255.050781 124.414062 257.164062 L 114.25 267.332031 C 112.464844 269.117188 109.359375 269.117188 107.59375 267.332031 Z M 107.59375 107.59375 C 108.476562 106.691406 109.652344 106.214844 110.902344 106.214844 C 112.171875 106.214844 113.347656 106.691406 114.25 107.59375 L 124.414062 117.777344 C 122.097656 119.875 119.855469 122.0625 117.761719 124.398438 L 107.59375 114.25 C 105.753906 112.410156 105.753906 109.414062 107.59375 107.59375 Z M 267.332031 107.59375 C 269.171875 109.414062 269.171875 112.410156 267.332031 114.25 L 257.148438 124.433594 C 255.03125 122.097656 252.824219 119.875 250.492188 117.777344 L 260.675781 107.59375 C 262.460938 105.808594 265.566406 105.808594 267.332031 107.59375 Z M 323.960938 187.460938 C 323.960938 174.058594 318.742188 161.464844 309.273438 151.996094 L 275.863281 118.585938 C 279.394531 113.109375 278.789062 105.71875 274.007812 100.917969 C 269.375 96.304688 261.78125 95.714844 256.375 99.097656 L 222.929688 65.652344 C 213.460938 56.183594 200.867188 50.960938 187.460938 50.960938 C 174.058594 50.960938 161.464844 56.183594 151.996094 65.652344 L 118.550781 99.097656 C 113.144531 95.714844 105.550781 96.304688 100.917969 100.917969 C 96.136719 105.71875 95.53125 113.109375 99.0625 118.585938 L 65.652344 151.996094 C 56.183594 161.464844 50.960938 174.058594 50.960938 187.460938 C 50.960938 200.867188 56.183594 213.460938 65.652344 222.929688 L 99.0625 256.335938 C 95.53125 261.816406 96.136719 269.207031 100.917969 274.007812 C 103.585938 276.671875 107.132812 278.125 110.902344 278.125 C 113.679688 278.125 116.324219 277.335938 118.570312 275.863281 L 151.996094 309.273438 C 161.464844 318.742188 174.058594 323.960938 187.460938 323.960938 C 200.867188 323.960938 213.460938 318.742188 222.929688 309.273438 L 256.355469 275.863281 C 258.597656 277.335938 261.246094 278.125 264.023438 278.125 C 267.792969 278.125 271.339844 276.671875 274.007812 274.007812 C 278.789062 269.207031 279.394531 261.816406 275.863281 256.335938 L 309.273438 222.929688 C 318.742188 213.460938 323.960938 200.867188 323.960938 187.460938 "/></g></g></svg>