<svg xmlns="http://www.w3.org/2000/svg" xmlns:xlink="http://www.w3.org/1999/xlink" width="500" zoomAndPan="magnify" viewBox="0 0 375 374.999991" height="500" preserveAspectRatio="xMidYMid meet" version="1.2"><defs><clipPath id="b756255794"><path d="M 252 50.960938 L 323.960938 50.960938 L 323.960938 248 L 252 248 Z M 252 50.960938 "/></clipPath><clipPath id="dd0d2216fa"><path d="M 51 303 L 323.960938 303 L 323.960938 323 L 51 323 Z M 51 303 "/></clipPath><clipPath id="e321ef39c8"><path d="M 51 280 L 323.960938 280 L 323.960938 299 L 51 299 Z M 51 280 "/></clipPath><clipPath id="2ddbe945ef"><path d="M 51 50.960938 L 323.960938 50.960938 L 323.960938 276 L 51 276 Z M 51 50.960938 "/></clipPath></defs><g id="76c169fe82"><g clip-rule="nonzero" clip-path="url(#b756255794)"><path style=" stroke:none;fill-rule:nonzero;fill:#000000;fill-opacity:1;" d="M 318.351562 50.960938 L 299.65625 50.960938 C 299.347656 50.960938 299.042969 50.992188 298.742188 51.050781 C 298.441406 51.113281 298.148438 51.199219 297.867188 51.320312 C 297.582031 51.4375 297.3125 51.578125 297.058594 51.75 C 296.800781 51.921875 296.566406 52.113281 296.347656 52.332031 C 296.132812 52.550781 295.9375 52.785156 295.769531 53.039062 C 295.597656 53.296875 295.453125 53.566406 295.335938 53.847656 C 295.21875 54.132812 295.128906 54.425781 295.070312 54.726562 C 295.007812 55.027344 294.980469 55.332031 294.980469 55.636719 L 294.980469 212.238281 C 294.980469 212.699219 294.933594 213.15625 294.84375 213.605469 C 294.753906 214.058594 294.621094 214.496094 294.445312 214.921875 C 294.269531 215.347656 294.054688 215.75 293.796875 216.132812 C 293.542969 216.515625 293.25 216.871094 292.925781 217.195312 C 292.601562 217.523438 292.246094 217.8125 291.863281 218.070312 C 291.480469 218.324219 291.078125 218.539062 290.652344 218.714844 C 290.226562 218.894531 289.789062 219.027344 289.335938 219.117188 C 288.882812 219.207031 288.429688 219.25 287.96875 219.25 C 287.507812 219.25 287.050781 219.207031 286.601562 219.117188 C 286.148438 219.027344 285.710938 218.894531 285.285156 218.714844 C 284.859375 218.539062 284.453125 218.324219 284.070312 218.070312 C 283.6875 217.8125 283.335938 217.523438 283.007812 217.195312 C 282.683594 216.871094 282.394531 216.515625 282.136719 216.132812 C 281.882812 215.75 281.664062 215.347656 281.488281 214.921875 C 281.3125 214.496094 281.179688 214.058594 281.089844 213.605469 C 281 213.15625 280.957031 212.699219 280.957031 212.238281 L 280.957031 200.550781 C 280.957031 200.246094 280.925781 199.941406 280.867188 199.640625 C 280.804688 199.339844 280.71875 199.046875 280.601562 198.761719 C 280.484375 198.480469 280.339844 198.210938 280.167969 197.953125 C 279.996094 197.699219 279.804688 197.464844 279.585938 197.246094 C 279.371094 197.027344 279.132812 196.835938 278.878906 196.664062 C 278.621094 196.496094 278.355469 196.351562 278.070312 196.234375 C 277.785156 196.117188 277.492188 196.027344 277.191406 195.96875 C 276.890625 195.90625 276.589844 195.878906 276.28125 195.878906 L 257.582031 195.878906 C 257.277344 195.878906 256.972656 195.90625 256.671875 195.96875 C 256.371094 196.027344 256.078125 196.117188 255.792969 196.234375 C 255.511719 196.351562 255.242188 196.496094 254.984375 196.664062 C 254.730469 196.835938 254.492188 197.027344 254.277344 197.246094 C 254.058594 197.464844 253.867188 197.699219 253.695312 197.953125 C 253.523438 198.210938 253.382812 198.480469 253.265625 198.761719 C 253.144531 199.046875 253.058594 199.339844 252.996094 199.640625 C 252.9375 199.941406 252.90625 200.246094 252.90625 200.550781 L 252.90625 212.238281 C 252.90625 213.386719 252.964844 214.53125 253.078125 215.675781 C 253.1875 216.816406 253.359375 217.953125 253.582031 219.078125 C 253.804688 220.203125 254.085938 221.316406 254.417969 222.414062 C 254.75 223.515625 255.136719 224.59375 255.578125 225.65625 C 256.015625 226.714844 256.507812 227.753906 257.046875 228.765625 C 257.589844 229.777344 258.179688 230.761719 258.816406 231.714844 C 259.453125 232.671875 260.136719 233.59375 260.867188 234.480469 C 261.59375 235.367188 262.363281 236.21875 263.175781 237.03125 C 263.988281 237.839844 264.839844 238.613281 265.726562 239.339844 C 266.613281 240.070312 267.535156 240.75 268.488281 241.390625 C 269.445312 242.027344 270.429688 242.617188 271.441406 243.160156 C 272.453125 243.699219 273.488281 244.191406 274.550781 244.628906 C 275.613281 245.070312 276.691406 245.457031 277.789062 245.789062 C 278.890625 246.121094 280 246.402344 281.128906 246.625 C 282.253906 246.847656 283.386719 247.015625 284.53125 247.128906 C 285.675781 247.242188 286.820312 247.296875 287.96875 247.296875 C 289.117188 247.296875 290.261719 247.242188 291.40625 247.128906 C 292.546875 247.015625 293.679688 246.847656 294.808594 246.625 C 295.933594 246.402344 297.046875 246.121094 298.144531 245.789062 C 299.242188 245.457031 300.324219 245.070312 301.382812 244.628906 C 302.445312 244.191406 303.480469 243.699219 304.496094 243.160156 C 305.507812 242.617188 306.492188 242.027344 307.445312 241.390625 C 308.402344 240.75 309.320312 240.070312 310.210938 239.339844 C 311.097656 238.613281 311.945312 237.839844 312.757812 237.03125 C 313.570312 236.21875 314.339844 235.367188 315.070312 234.480469 C 315.796875 233.59375 316.480469 232.671875 317.117188 231.714844 C 317.757812 230.761719 318.347656 229.777344 318.886719 228.765625 C 319.429688 227.753906 319.917969 226.714844 320.359375 225.65625 C 320.796875 224.59375 321.183594 223.515625 321.519531 222.414062 C 321.851562 221.316406 322.128906 220.203125 322.355469 219.078125 C 322.578125 217.953125 322.746094 216.816406 322.859375 215.675781 C 322.972656 214.53125 323.027344 213.386719 323.027344 212.238281 L 323.027344 55.636719 C 323.027344 55.332031 322.996094 55.027344 322.9375 54.726562 C 322.878906 54.425781 322.789062 54.132812 322.671875 53.847656 C 322.554688 53.566406 322.410156 53.296875 322.238281 53.039062 C 322.070312 52.785156 321.875 52.550781 321.660156 52.332031 C 321.441406 52.113281 321.207031 51.921875 320.949219 51.75 C 320.695312 51.578125 320.425781 51.4375 320.140625 51.320312 C 319.859375 51.199219 319.566406 51.113281 319.265625 51.050781 C 318.964844 50.992188 318.660156 50.960938 318.351562 50.960938 Z M 304.328125 83.683594 L 313.679688 83.683594 L 313.679688 88.359375 L 304.328125 88.359375 Z M 313.679688 60.3125 L 313.679688 74.335938 L 304.328125 74.335938 L 304.328125 60.3125 Z M 287.96875 237.949219 C 287.125 237.949219 286.285156 237.90625 285.449219 237.824219 C 284.609375 237.738281 283.78125 237.613281 282.953125 237.449219 C 282.128906 237.285156 281.3125 237.082031 280.507812 236.835938 C 279.703125 236.589844 278.910156 236.308594 278.132812 235.984375 C 277.355469 235.660156 276.59375 235.300781 275.851562 234.90625 C 275.109375 234.507812 274.390625 234.074219 273.691406 233.605469 C 272.992188 233.140625 272.316406 232.636719 271.664062 232.105469 C 271.015625 231.570312 270.390625 231.003906 269.796875 230.410156 C 269.199219 229.816406 268.636719 229.191406 268.101562 228.542969 C 267.566406 227.890625 267.066406 227.214844 266.597656 226.515625 C 266.132812 225.816406 265.699219 225.09375 265.300781 224.351562 C 264.902344 223.609375 264.542969 222.851562 264.222656 222.074219 C 263.898438 221.296875 263.617188 220.503906 263.371094 219.699219 C 263.125 218.894531 262.921875 218.078125 262.753906 217.253906 C 262.589844 216.425781 262.46875 215.59375 262.382812 214.757812 C 262.300781 213.917969 262.257812 213.082031 262.257812 212.238281 L 262.257812 205.226562 L 271.605469 205.226562 L 271.605469 212.238281 C 271.605469 212.773438 271.632812 213.308594 271.683594 213.84375 C 271.738281 214.375 271.816406 214.90625 271.921875 215.429688 C 272.027344 215.957031 272.15625 216.476562 272.3125 216.988281 C 272.464844 217.5 272.648438 218.003906 272.851562 218.5 C 273.058594 218.996094 273.285156 219.476562 273.539062 219.949219 C 273.789062 220.421875 274.066406 220.882812 274.363281 221.328125 C 274.660156 221.773438 274.980469 222.203125 275.320312 222.617188 C 275.660156 223.03125 276.019531 223.429688 276.398438 223.808594 C 276.777344 224.1875 277.175781 224.546875 277.589844 224.886719 C 278.003906 225.226562 278.433594 225.542969 278.878906 225.84375 C 279.324219 226.140625 279.78125 226.414062 280.253906 226.667969 C 280.726562 226.921875 281.210938 227.148438 281.707031 227.355469 C 282.203125 227.558594 282.707031 227.738281 283.21875 227.894531 C 283.730469 228.050781 284.25 228.179688 284.777344 228.285156 C 285.300781 228.390625 285.832031 228.46875 286.363281 228.519531 C 286.898438 228.574219 287.433594 228.601562 287.96875 228.601562 C 288.503906 228.601562 289.039062 228.574219 289.570312 228.519531 C 290.105469 228.46875 290.632812 228.390625 291.160156 228.285156 C 291.683594 228.179688 292.203125 228.050781 292.71875 227.894531 C 293.230469 227.738281 293.734375 227.558594 294.230469 227.355469 C 294.722656 227.148438 295.207031 226.921875 295.679688 226.667969 C 296.152344 226.414062 296.613281 226.140625 297.058594 225.84375 C 297.503906 225.542969 297.933594 225.226562 298.347656 224.886719 C 298.761719 224.546875 299.15625 224.1875 299.535156 223.808594 C 299.914062 223.429688 300.273438 223.03125 300.613281 222.617188 C 300.957031 222.203125 301.273438 221.773438 301.570312 221.328125 C 301.871094 220.882812 302.144531 220.421875 302.398438 219.949219 C 302.648438 219.476562 302.878906 218.996094 303.082031 218.5 C 303.289062 218.003906 303.46875 217.5 303.625 216.988281 C 303.78125 216.476562 303.910156 215.957031 304.015625 215.429688 C 304.121094 214.90625 304.199219 214.375 304.25 213.84375 C 304.304688 213.308594 304.328125 212.773438 304.328125 212.238281 L 304.328125 97.710938 L 313.679688 97.710938 L 313.679688 212.238281 C 313.675781 213.082031 313.636719 213.917969 313.550781 214.757812 C 313.46875 215.59375 313.34375 216.425781 313.179688 217.253906 C 313.015625 218.078125 312.808594 218.894531 312.566406 219.699219 C 312.320312 220.503906 312.035156 221.296875 311.714844 222.074219 C 311.390625 222.851562 311.03125 223.609375 310.632812 224.351562 C 310.238281 225.09375 309.804688 225.816406 309.335938 226.515625 C 308.867188 227.214844 308.367188 227.890625 307.832031 228.542969 C 307.300781 229.191406 306.734375 229.816406 306.140625 230.410156 C 305.542969 231.003906 304.921875 231.570312 304.269531 232.105469 C 303.621094 232.636719 302.945312 233.140625 302.246094 233.605469 C 301.546875 234.074219 300.824219 234.507812 300.082031 234.90625 C 299.339844 235.300781 298.578125 235.660156 297.800781 235.984375 C 297.023438 236.308594 296.234375 236.589844 295.429688 236.835938 C 294.621094 237.082031 293.808594 237.285156 292.980469 237.449219 C 292.15625 237.613281 291.324219 237.738281 290.488281 237.824219 C 289.648438 237.90625 288.808594 237.949219 287.96875 237.949219 Z M 287.96875 237.949219 "/></g><g clip-rule="nonzero" clip-path="url(#dd0d2216fa)"><path style=" stroke:none;fill-rule:nonzero;fill:#000000;fill-opacity:1;" d="M 318.351562 312.742188 C 315.445312 312.824219 312.578125 312.507812 309.753906 311.796875 C 306.933594 311.085938 304.257812 310.007812 301.734375 308.558594 C 300.136719 307.714844 298.496094 306.96875 296.808594 306.324219 C 295.121094 305.679688 293.402344 305.136719 291.648438 304.703125 C 289.898438 304.265625 288.125 303.9375 286.332031 303.71875 C 284.539062 303.5 282.738281 303.390625 280.933594 303.390625 C 279.125 303.390625 277.328125 303.5 275.535156 303.71875 C 273.742188 303.9375 271.96875 304.265625 270.214844 304.703125 C 268.460938 305.136719 266.742188 305.679688 265.054688 306.324219 C 263.367188 306.96875 261.726562 307.714844 260.128906 308.558594 C 258.859375 309.242188 257.550781 309.847656 256.203125 310.367188 C 254.855469 310.890625 253.484375 311.328125 252.082031 311.679688 C 250.683594 312.03125 249.265625 312.296875 247.832031 312.472656 C 246.402344 312.652344 244.960938 312.742188 243.519531 312.742188 C 242.074219 312.742188 240.636719 312.652344 239.203125 312.472656 C 237.769531 312.296875 236.355469 312.03125 234.953125 311.679688 C 233.554688 311.328125 232.179688 310.890625 230.835938 310.367188 C 229.488281 309.847656 228.179688 309.242188 226.90625 308.558594 C 223.734375 306.789062 220.386719 305.46875 216.863281 304.589844 C 213.335938 303.714844 209.761719 303.316406 206.128906 303.394531 C 202.496094 303.316406 198.914062 303.714844 195.386719 304.589844 C 191.859375 305.464844 188.507812 306.789062 185.335938 308.558594 C 182.8125 310.007812 180.140625 311.085938 177.316406 311.796875 C 174.496094 312.507812 171.628906 312.824219 168.722656 312.742188 C 165.816406 312.824219 162.949219 312.507812 160.132812 311.796875 C 157.3125 311.085938 154.640625 310.007812 152.117188 308.558594 C 148.945312 306.789062 145.597656 305.464844 142.070312 304.589844 C 138.542969 303.714844 134.964844 303.316406 131.335938 303.394531 C 127.703125 303.316406 124.125 303.714844 120.601562 304.589844 C 117.074219 305.464844 113.726562 306.789062 110.554688 308.558594 C 108.035156 310.007812 105.367188 311.085938 102.550781 311.796875 C 99.734375 312.503906 96.875 312.820312 93.96875 312.742188 C 91.0625 312.824219 88.199219 312.507812 85.382812 311.796875 C 82.5625 311.085938 79.890625 310.007812 77.371094 308.558594 C 74.195312 306.789062 70.84375 305.464844 67.316406 304.585938 C 63.789062 303.710938 60.207031 303.3125 56.574219 303.394531 C 56.265625 303.394531 55.960938 303.425781 55.660156 303.484375 C 55.359375 303.542969 55.066406 303.632812 54.785156 303.75 C 54.5 303.867188 54.230469 304.011719 53.976562 304.183594 C 53.71875 304.351562 53.484375 304.546875 53.265625 304.761719 C 53.050781 304.980469 52.855469 305.214844 52.683594 305.472656 C 52.515625 305.726562 52.371094 305.996094 52.253906 306.28125 C 52.136719 306.5625 52.046875 306.855469 51.988281 307.15625 C 51.925781 307.457031 51.898438 307.761719 51.898438 308.070312 C 51.898438 308.375 51.925781 308.679688 51.988281 308.980469 C 52.046875 309.28125 52.136719 309.574219 52.253906 309.859375 C 52.371094 310.140625 52.515625 310.410156 52.683594 310.664062 C 52.855469 310.921875 53.050781 311.15625 53.265625 311.375 C 53.484375 311.589844 53.71875 311.785156 53.976562 311.957031 C 54.230469 312.125 54.5 312.269531 54.785156 312.386719 C 55.066406 312.503906 55.359375 312.59375 55.660156 312.652344 C 55.960938 312.714844 56.265625 312.742188 56.574219 312.742188 C 59.480469 312.664062 62.339844 312.980469 65.160156 313.691406 C 67.980469 314.398438 70.652344 315.480469 73.171875 316.925781 C 76.347656 318.699219 79.699219 320.023438 83.226562 320.898438 C 86.753906 321.777344 90.335938 322.171875 93.96875 322.09375 C 97.601562 322.171875 101.179688 321.773438 104.707031 320.898438 C 108.230469 320.019531 111.582031 318.699219 114.753906 316.925781 C 117.273438 315.480469 119.9375 314.402344 122.753906 313.691406 C 125.570312 312.980469 128.429688 312.664062 131.335938 312.742188 C 134.242188 312.664062 137.105469 312.980469 139.925781 313.691406 C 142.746094 314.398438 145.417969 315.480469 147.9375 316.925781 C 151.109375 318.699219 154.460938 320.019531 157.984375 320.898438 C 161.511719 321.773438 165.089844 322.171875 168.722656 322.09375 C 172.355469 322.171875 175.9375 321.773438 179.464844 320.898438 C 182.988281 320.019531 186.339844 318.699219 189.515625 316.925781 C 192.039062 315.480469 194.710938 314.398438 197.53125 313.6875 C 200.355469 312.976562 203.21875 312.664062 206.128906 312.742188 C 209.035156 312.664062 211.898438 312.980469 214.71875 313.691406 C 217.539062 314.398438 220.210938 315.480469 222.734375 316.925781 C 224.328125 317.773438 225.96875 318.519531 227.65625 319.164062 C 229.34375 319.8125 231.0625 320.351562 232.816406 320.789062 C 234.570312 321.222656 236.34375 321.550781 238.136719 321.769531 C 239.929688 321.992188 241.730469 322.101562 243.535156 322.101562 C 245.339844 322.101562 247.140625 321.992188 248.933594 321.769531 C 250.726562 321.550781 252.5 321.222656 254.253906 320.789062 C 256.007812 320.351562 257.726562 319.8125 259.414062 319.164062 C 261.101562 318.519531 262.742188 317.773438 264.335938 316.925781 C 265.609375 316.242188 266.917969 315.640625 268.265625 315.117188 C 269.613281 314.597656 270.988281 314.160156 272.386719 313.808594 C 273.789062 313.453125 275.207031 313.191406 276.640625 313.011719 C 278.074219 312.835938 279.511719 312.746094 280.957031 312.746094 C 282.398438 312.746094 283.839844 312.835938 285.273438 313.011719 C 286.707031 313.191406 288.125 313.453125 289.523438 313.808594 C 290.925781 314.160156 292.296875 314.597656 293.644531 315.117188 C 294.992188 315.640625 296.300781 316.242188 297.574219 316.925781 C 300.746094 318.695312 304.09375 320.019531 307.621094 320.894531 C 311.144531 321.769531 314.722656 322.171875 318.351562 322.09375 C 318.660156 322.09375 318.964844 322.0625 319.265625 322.003906 C 319.566406 321.941406 319.859375 321.855469 320.140625 321.738281 C 320.425781 321.621094 320.695312 321.476562 320.949219 321.304688 C 321.207031 321.132812 321.441406 320.941406 321.660156 320.722656 C 321.875 320.507812 322.070312 320.269531 322.238281 320.015625 C 322.410156 319.761719 322.554688 319.492188 322.671875 319.207031 C 322.789062 318.921875 322.878906 318.632812 322.9375 318.332031 C 322.996094 318.027344 323.027344 317.726562 323.027344 317.417969 C 323.027344 317.109375 322.996094 316.808594 322.9375 316.507812 C 322.878906 316.203125 322.789062 315.914062 322.671875 315.628906 C 322.554688 315.34375 322.410156 315.078125 322.238281 314.820312 C 322.070312 314.566406 321.875 314.328125 321.660156 314.113281 C 321.441406 313.894531 321.207031 313.703125 320.949219 313.53125 C 320.695312 313.359375 320.425781 313.214844 320.140625 313.097656 C 319.859375 312.980469 319.566406 312.894531 319.265625 312.832031 C 318.964844 312.773438 318.660156 312.742188 318.351562 312.742188 Z M 318.351562 312.742188 "/></g><g clip-rule="nonzero" clip-path="url(#e321ef39c8)"><path style=" stroke:none;fill-rule:nonzero;fill:#000000;fill-opacity:1;" d="M 318.351562 289.371094 C 315.445312 289.449219 312.578125 289.136719 309.753906 288.425781 C 306.933594 287.714844 304.257812 286.632812 301.734375 285.1875 C 300.136719 284.339844 298.496094 283.59375 296.808594 282.949219 C 295.121094 282.304688 293.402344 281.765625 291.648438 281.328125 C 289.898438 280.894531 288.125 280.566406 286.332031 280.347656 C 284.539062 280.125 282.738281 280.015625 280.933594 280.015625 C 279.125 280.015625 277.328125 280.125 275.535156 280.347656 C 273.742188 280.566406 271.96875 280.894531 270.214844 281.328125 C 268.460938 281.765625 266.742188 282.304688 265.054688 282.949219 C 263.367188 283.59375 261.726562 284.339844 260.128906 285.1875 C 258.859375 285.871094 257.550781 286.472656 256.203125 286.996094 C 254.855469 287.515625 253.484375 287.953125 252.082031 288.304688 C 250.683594 288.660156 249.265625 288.921875 247.832031 289.101562 C 246.402344 289.277344 244.960938 289.367188 243.519531 289.367188 C 242.074219 289.367188 240.636719 289.277344 239.203125 289.101562 C 237.769531 288.921875 236.355469 288.660156 234.953125 288.304688 C 233.554688 287.953125 232.179688 287.515625 230.835938 286.996094 C 229.488281 286.472656 228.179688 285.871094 226.90625 285.1875 C 223.734375 283.417969 220.386719 282.09375 216.863281 281.21875 C 213.335938 280.339844 209.761719 279.941406 206.128906 280.019531 C 202.496094 279.941406 198.914062 280.339844 195.386719 281.214844 C 191.859375 282.09375 188.507812 283.414062 185.335938 285.1875 C 182.8125 286.632812 180.140625 287.714844 177.316406 288.425781 C 174.496094 289.136719 171.628906 289.449219 168.722656 289.371094 C 165.816406 289.449219 162.949219 289.132812 160.132812 288.425781 C 157.3125 287.714844 154.640625 286.632812 152.117188 285.1875 C 148.945312 283.417969 145.597656 282.09375 142.070312 281.21875 C 138.542969 280.339844 134.964844 279.941406 131.335938 280.019531 C 127.703125 279.941406 124.125 280.339844 120.601562 281.214844 C 117.074219 282.09375 113.726562 283.417969 110.554688 285.1875 C 108.035156 286.632812 105.367188 287.710938 102.550781 288.421875 C 99.734375 289.132812 96.875 289.449219 93.96875 289.371094 C 91.0625 289.449219 88.199219 289.132812 85.382812 288.425781 C 82.5625 287.714844 79.890625 286.632812 77.371094 285.1875 C 74.195312 283.414062 70.84375 282.089844 67.316406 281.214844 C 63.789062 280.335938 60.207031 279.941406 56.574219 280.019531 C 56.265625 280.019531 55.960938 280.050781 55.660156 280.109375 C 55.359375 280.171875 55.066406 280.257812 54.785156 280.375 C 54.5 280.492188 54.230469 280.636719 53.976562 280.808594 C 53.71875 280.980469 53.484375 281.171875 53.265625 281.390625 C 53.050781 281.605469 52.855469 281.84375 52.683594 282.097656 C 52.515625 282.355469 52.371094 282.621094 52.253906 282.90625 C 52.136719 283.191406 52.046875 283.484375 51.988281 283.785156 C 51.925781 284.085938 51.898438 284.386719 51.898438 284.695312 C 51.898438 285.003906 51.925781 285.304688 51.988281 285.609375 C 52.046875 285.910156 52.136719 286.199219 52.253906 286.484375 C 52.371094 286.769531 52.515625 287.039062 52.683594 287.292969 C 52.855469 287.546875 53.050781 287.785156 53.265625 288 C 53.484375 288.21875 53.71875 288.410156 53.976562 288.582031 C 54.230469 288.753906 54.5 288.898438 54.785156 289.015625 C 55.066406 289.132812 55.359375 289.21875 55.660156 289.28125 C 55.960938 289.339844 56.265625 289.371094 56.574219 289.371094 C 59.480469 289.289062 62.339844 289.605469 65.160156 290.316406 C 67.980469 291.027344 70.652344 292.105469 73.171875 293.554688 C 76.347656 295.324219 79.699219 296.648438 83.226562 297.527344 C 86.753906 298.402344 90.335938 298.800781 93.96875 298.71875 C 97.601562 298.796875 101.179688 298.398438 104.707031 297.523438 C 108.230469 296.648438 111.582031 295.324219 114.753906 293.554688 C 117.273438 292.109375 119.9375 291.03125 122.753906 290.320312 C 125.570312 289.609375 128.429688 289.292969 131.335938 289.371094 C 134.242188 289.289062 137.105469 289.605469 139.925781 290.316406 C 142.746094 291.027344 145.417969 292.105469 147.9375 293.554688 C 151.109375 295.324219 154.460938 296.648438 157.984375 297.523438 C 161.511719 298.398438 165.089844 298.796875 168.722656 298.71875 C 172.355469 298.796875 175.9375 298.398438 179.464844 297.523438 C 182.988281 296.648438 186.339844 295.324219 189.515625 293.554688 C 192.039062 292.105469 194.710938 291.027344 197.53125 290.316406 C 200.355469 289.605469 203.21875 289.289062 206.128906 289.371094 C 209.035156 289.289062 211.898438 289.605469 214.71875 290.316406 C 217.539062 291.027344 220.210938 292.105469 222.734375 293.554688 C 224.328125 294.398438 225.96875 295.144531 227.65625 295.792969 C 229.34375 296.4375 231.0625 296.980469 232.816406 297.414062 C 234.570312 297.851562 236.34375 298.179688 238.136719 298.398438 C 239.929688 298.617188 241.730469 298.726562 243.535156 298.726562 C 245.339844 298.726562 247.140625 298.617188 248.933594 298.398438 C 250.726562 298.179688 252.5 297.851562 254.253906 297.414062 C 256.007812 296.980469 257.726562 296.4375 259.414062 295.792969 C 261.101562 295.144531 262.742188 294.398438 264.335938 293.554688 C 265.609375 292.871094 266.917969 292.269531 268.265625 291.746094 C 269.613281 291.222656 270.988281 290.785156 272.386719 290.433594 C 273.789062 290.082031 275.207031 289.816406 276.640625 289.640625 C 278.074219 289.460938 279.511719 289.371094 280.957031 289.371094 C 282.398438 289.371094 283.839844 289.460938 285.273438 289.640625 C 286.707031 289.816406 288.125 290.082031 289.523438 290.433594 C 290.925781 290.785156 292.296875 291.222656 293.644531 291.746094 C 294.992188 292.269531 296.300781 292.871094 297.574219 293.554688 C 300.746094 295.324219 304.09375 296.644531 307.621094 297.523438 C 311.144531 298.398438 314.722656 298.796875 318.351562 298.71875 C 318.660156 298.71875 318.964844 298.691406 319.265625 298.628906 C 319.566406 298.570312 319.859375 298.480469 320.140625 298.363281 C 320.425781 298.246094 320.695312 298.101562 320.949219 297.929688 C 321.207031 297.761719 321.441406 297.566406 321.660156 297.351562 C 321.875 297.132812 322.070312 296.898438 322.238281 296.640625 C 322.410156 296.386719 322.554688 296.117188 322.671875 295.832031 C 322.789062 295.550781 322.878906 295.257812 322.9375 294.957031 C 322.996094 294.65625 323.027344 294.351562 323.027344 294.042969 C 323.027344 293.738281 322.996094 293.433594 322.9375 293.132812 C 322.878906 292.832031 322.789062 292.539062 322.671875 292.257812 C 322.554688 291.972656 322.410156 291.703125 322.238281 291.449219 C 322.070312 291.191406 321.875 290.957031 321.660156 290.738281 C 321.441406 290.523438 321.207031 290.328125 320.949219 290.15625 C 320.695312 289.988281 320.425781 289.84375 320.140625 289.726562 C 319.859375 289.609375 319.566406 289.519531 319.265625 289.460938 C 318.964844 289.398438 318.660156 289.371094 318.351562 289.371094 Z M 318.351562 289.371094 "/></g><g clip-rule="nonzero" clip-path="url(#2ddbe945ef)"><path style=" stroke:none;fill-rule:nonzero;fill:#000000;fill-opacity:1;" d="M 318.351562 265.996094 C 315.445312 266.078125 312.578125 265.761719 309.753906 265.050781 C 306.933594 264.339844 304.257812 263.261719 301.734375 261.8125 C 300.136719 260.96875 298.496094 260.222656 296.808594 259.578125 C 295.121094 258.929688 293.402344 258.390625 291.648438 257.957031 C 289.898438 257.519531 288.125 257.191406 286.332031 256.972656 C 284.539062 256.753906 282.738281 256.644531 280.933594 256.644531 C 279.125 256.644531 277.328125 256.753906 275.535156 256.972656 C 273.742188 257.191406 271.96875 257.519531 270.214844 257.957031 C 268.460938 258.390625 266.742188 258.929688 265.054688 259.578125 C 263.367188 260.222656 261.726562 260.96875 260.128906 261.8125 C 258.859375 262.496094 257.550781 263.097656 256.203125 263.621094 C 254.855469 264.144531 253.484375 264.582031 252.082031 264.933594 C 250.683594 265.285156 249.265625 265.550781 247.832031 265.726562 C 246.402344 265.90625 244.960938 265.996094 243.519531 265.996094 C 242.074219 265.996094 240.636719 265.90625 239.203125 265.726562 C 237.769531 265.550781 236.355469 265.285156 234.953125 264.933594 C 233.554688 264.582031 232.179688 264.144531 230.835938 263.621094 C 229.488281 263.097656 228.179688 262.496094 226.90625 261.8125 C 224.035156 260.21875 221.011719 258.992188 217.839844 258.128906 C 214.667969 257.269531 211.441406 256.796875 208.15625 256.714844 C 209.769531 255.085938 211.242188 253.339844 212.566406 251.46875 C 213.894531 249.601562 215.058594 247.636719 216.058594 245.578125 C 217.0625 243.515625 217.890625 241.386719 218.539062 239.191406 C 219.191406 236.992188 219.660156 234.757812 219.941406 232.484375 C 220.632812 232.253906 221.304688 231.972656 221.953125 231.640625 C 222.597656 231.304688 223.21875 230.921875 223.804688 230.492188 C 224.394531 230.0625 224.945312 229.589844 225.457031 229.074219 C 225.972656 228.554688 226.441406 228.003906 226.871094 227.414062 C 227.296875 226.824219 227.679688 226.203125 228.007812 225.554688 C 228.339844 224.90625 228.617188 224.234375 228.84375 223.542969 C 229.070312 222.847656 229.242188 222.140625 229.355469 221.421875 C 229.472656 220.703125 229.53125 219.980469 229.535156 219.25 L 229.535156 181.851562 C 229.53125 180.800781 229.410156 179.761719 229.167969 178.734375 C 228.929688 177.710938 228.578125 176.722656 228.117188 175.777344 C 227.652344 174.832031 227.089844 173.949219 226.429688 173.132812 C 225.765625 172.3125 225.019531 171.578125 224.191406 170.929688 C 226.503906 168.550781 228.570312 165.976562 230.386719 163.203125 C 232.207031 160.429688 233.746094 157.507812 235.003906 154.4375 C 236.261719 151.371094 237.21875 148.210938 237.871094 144.957031 C 238.523438 141.707031 238.859375 138.421875 238.882812 135.105469 C 238.882812 103.550781 212.527344 84.371094 196.457031 75.609375 C 201.832031 74.699219 206.445312 74.335938 206.53125 74.335938 C 207.367188 74.269531 208.132812 74 208.824219 73.523438 C 209.511719 73.042969 210.039062 72.425781 210.394531 71.667969 C 210.753906 70.90625 210.894531 70.109375 210.824219 69.273438 C 210.75 68.4375 210.472656 67.675781 209.988281 66.988281 C 208.835938 65.332031 197.238281 50.960938 145.390625 50.960938 C 75.4375 50.960938 51.898438 108.746094 51.898438 135.105469 C 52.070312 138.390625 52.527344 141.636719 53.269531 144.839844 C 54.007812 148.046875 55.019531 151.164062 56.304688 154.191406 C 57.585938 157.222656 59.121094 160.117188 60.910156 162.875 C 62.699219 165.636719 64.710938 168.222656 66.949219 170.632812 C 66.070312 171.28125 65.273438 172.019531 64.566406 172.855469 C 63.859375 173.6875 63.257812 174.589844 62.765625 175.566406 C 62.269531 176.539062 61.894531 177.558594 61.636719 178.621094 C 61.378906 179.683594 61.25 180.761719 61.246094 181.851562 L 61.246094 219.25 C 61.25 219.980469 61.308594 220.703125 61.425781 221.421875 C 61.539062 222.140625 61.710938 222.847656 61.9375 223.539062 C 62.160156 224.230469 62.441406 224.902344 62.769531 225.550781 C 63.101562 226.203125 63.480469 226.820312 63.90625 227.410156 C 64.335938 228 64.804688 228.554688 65.316406 229.070312 C 65.832031 229.585938 66.382812 230.0625 66.96875 230.492188 C 67.558594 230.921875 68.175781 231.304688 68.820312 231.636719 C 69.46875 231.972656 70.140625 232.253906 70.828125 232.484375 C 70.996094 234.1875 71.261719 235.875 71.628906 237.546875 C 71.992188 239.21875 72.453125 240.863281 73.007812 242.484375 C 73.5625 244.101562 74.210938 245.683594 74.949219 247.226562 C 75.6875 248.769531 76.515625 250.265625 77.429688 251.710938 C 78.34375 253.15625 79.335938 254.546875 80.414062 255.878906 C 81.488281 257.210938 82.636719 258.472656 83.859375 259.671875 C 85.082031 260.867188 86.367188 261.992188 87.722656 263.039062 C 89.074219 264.085938 90.484375 265.050781 91.949219 265.9375 C 86.742188 265.769531 81.875 264.394531 77.351562 261.8125 C 74.179688 260.042969 70.832031 258.71875 67.304688 257.84375 C 63.78125 256.96875 60.203125 256.570312 56.574219 256.648438 C 56.265625 256.648438 55.960938 256.675781 55.660156 256.738281 C 55.359375 256.796875 55.066406 256.886719 54.785156 257.003906 C 54.5 257.121094 54.230469 257.265625 53.976562 257.433594 C 53.71875 257.605469 53.484375 257.800781 53.265625 258.015625 C 53.050781 258.234375 52.855469 258.46875 52.683594 258.726562 C 52.515625 258.980469 52.371094 259.25 52.253906 259.535156 C 52.136719 259.816406 52.046875 260.109375 51.988281 260.410156 C 51.925781 260.710938 51.898438 261.015625 51.898438 261.320312 C 51.898438 261.628906 51.925781 261.933594 51.988281 262.234375 C 52.046875 262.535156 52.136719 262.828125 52.253906 263.109375 C 52.371094 263.394531 52.515625 263.664062 52.683594 263.917969 C 52.855469 264.175781 53.050781 264.410156 53.265625 264.628906 C 53.484375 264.84375 53.71875 265.039062 53.976562 265.210938 C 54.230469 265.378906 54.5 265.523438 54.785156 265.640625 C 55.066406 265.757812 55.359375 265.847656 55.660156 265.90625 C 55.960938 265.96875 56.265625 265.996094 56.574219 265.996094 C 59.480469 265.917969 62.339844 266.234375 65.160156 266.941406 C 67.980469 267.652344 70.652344 268.734375 73.171875 270.179688 C 76.347656 271.953125 79.699219 273.277344 83.226562 274.152344 C 86.753906 275.027344 90.335938 275.425781 93.96875 275.347656 C 97.601562 275.425781 101.179688 275.027344 104.707031 274.152344 C 108.230469 273.273438 111.582031 271.949219 114.753906 270.179688 C 117.273438 268.734375 119.9375 267.65625 122.753906 266.945312 C 125.570312 266.234375 128.429688 265.917969 131.335938 265.996094 C 134.242188 265.917969 137.105469 266.234375 139.925781 266.941406 C 142.746094 267.652344 145.417969 268.734375 147.9375 270.179688 C 151.109375 271.949219 154.460938 273.273438 157.984375 274.148438 C 161.511719 275.027344 165.089844 275.425781 168.722656 275.347656 C 172.355469 275.425781 175.9375 275.027344 179.464844 274.152344 C 182.988281 273.273438 186.339844 271.949219 189.515625 270.179688 C 192.039062 268.734375 194.710938 267.652344 197.53125 266.941406 C 200.355469 266.230469 203.21875 265.917969 206.128906 265.996094 C 209.035156 265.917969 211.898438 266.234375 214.71875 266.941406 C 217.539062 267.652344 220.210938 268.734375 222.734375 270.179688 C 224.328125 271.027344 225.96875 271.773438 227.65625 272.417969 C 229.34375 273.066406 231.0625 273.605469 232.816406 274.042969 C 234.570312 274.476562 236.34375 274.804688 238.136719 275.023438 C 239.929688 275.246094 241.730469 275.355469 243.535156 275.355469 C 245.339844 275.355469 247.140625 275.246094 248.933594 275.023438 C 250.726562 274.804688 252.5 274.476562 254.253906 274.042969 C 256.007812 273.605469 257.726562 273.066406 259.414062 272.417969 C 261.101562 271.773438 262.742188 271.027344 264.335938 270.179688 C 265.609375 269.496094 266.917969 268.894531 268.265625 268.371094 C 269.613281 267.851562 270.988281 267.414062 272.386719 267.0625 C 273.789062 266.707031 275.207031 266.445312 276.640625 266.265625 C 278.074219 266.089844 279.511719 266 280.957031 266 C 282.398438 266 283.839844 266.089844 285.273438 266.265625 C 286.707031 266.445312 288.125 266.707031 289.523438 267.0625 C 290.925781 267.414062 292.296875 267.851562 293.644531 268.371094 C 294.992188 268.894531 296.300781 269.496094 297.574219 270.179688 C 300.746094 271.949219 304.09375 273.273438 307.621094 274.148438 C 311.144531 275.023438 314.722656 275.425781 318.351562 275.347656 C 318.660156 275.347656 318.964844 275.316406 319.265625 275.257812 C 319.566406 275.195312 319.859375 275.109375 320.140625 274.992188 C 320.425781 274.871094 320.695312 274.730469 320.949219 274.558594 C 321.207031 274.386719 321.441406 274.195312 321.660156 273.976562 C 321.875 273.761719 322.070312 273.523438 322.238281 273.269531 C 322.410156 273.011719 322.554688 272.742188 322.671875 272.460938 C 322.789062 272.175781 322.878906 271.882812 322.9375 271.582031 C 322.996094 271.28125 323.027344 270.976562 323.027344 270.671875 C 323.027344 270.363281 322.996094 270.0625 322.9375 269.757812 C 322.878906 269.457031 322.789062 269.167969 322.671875 268.882812 C 322.554688 268.597656 322.410156 268.328125 322.238281 268.074219 C 322.070312 267.820312 321.875 267.582031 321.660156 267.367188 C 321.441406 267.148438 321.207031 266.957031 320.949219 266.785156 C 320.695312 266.613281 320.425781 266.46875 320.140625 266.351562 C 319.859375 266.234375 319.566406 266.148438 319.265625 266.085938 C 318.964844 266.027344 318.660156 265.996094 318.351562 265.996094 Z M 220.183594 219.25 C 220.183594 219.558594 220.15625 219.859375 220.09375 220.164062 C 220.035156 220.464844 219.945312 220.753906 219.828125 221.039062 C 219.710938 221.324219 219.566406 221.59375 219.398438 221.847656 C 219.226562 222.101562 219.03125 222.339844 218.816406 222.554688 C 218.597656 222.773438 218.363281 222.964844 218.109375 223.136719 C 217.851562 223.308594 217.582031 223.453125 217.300781 223.570312 C 217.015625 223.6875 216.722656 223.773438 216.421875 223.835938 C 216.121094 223.894531 215.816406 223.925781 215.511719 223.925781 L 167.082031 223.925781 C 166.542969 223.925781 166.019531 223.835938 165.511719 223.652344 C 165.003906 223.472656 164.542969 223.210938 164.125 222.871094 C 163.707031 222.53125 163.359375 222.128906 163.078125 221.667969 C 162.800781 221.207031 162.609375 220.714844 162.5 220.183594 L 161.164062 213.496094 C 160.980469 212.589844 160.726562 211.710938 160.390625 210.847656 C 160.058594 209.988281 159.65625 209.164062 159.179688 208.375 C 158.707031 207.582031 158.167969 206.839844 157.5625 206.140625 C 156.960938 205.441406 156.300781 204.800781 155.589844 204.214844 C 154.875 203.632812 154.117188 203.113281 153.316406 202.660156 C 152.511719 202.203125 151.675781 201.820312 150.808594 201.511719 C 149.9375 201.199219 149.050781 200.96875 148.140625 200.808594 C 147.234375 200.652344 146.316406 200.574219 145.394531 200.574219 C 144.472656 200.574219 143.558594 200.652344 142.648438 200.808594 C 141.738281 200.96875 140.851562 201.199219 139.984375 201.511719 C 139.113281 201.820312 138.277344 202.203125 137.476562 202.660156 C 136.671875 203.113281 135.914062 203.632812 135.203125 204.214844 C 134.488281 204.800781 133.832031 205.441406 133.226562 206.140625 C 132.625 206.839844 132.085938 207.582031 131.609375 208.375 C 131.136719 209.164062 130.730469 209.988281 130.398438 210.847656 C 130.066406 211.710938 129.808594 212.589844 129.628906 213.496094 L 128.285156 220.183594 C 128.179688 220.714844 127.984375 221.207031 127.707031 221.667969 C 127.425781 222.128906 127.078125 222.53125 126.664062 222.871094 C 126.246094 223.210938 125.78125 223.472656 125.273438 223.652344 C 124.765625 223.835938 124.242188 223.925781 123.703125 223.925781 L 75.269531 223.925781 C 74.964844 223.925781 74.660156 223.894531 74.359375 223.835938 C 74.058594 223.773438 73.765625 223.6875 73.480469 223.570312 C 73.199219 223.453125 72.929688 223.308594 72.671875 223.136719 C 72.417969 222.964844 72.183594 222.773438 71.964844 222.554688 C 71.75 222.339844 71.554688 222.101562 71.382812 221.847656 C 71.214844 221.59375 71.070312 221.324219 70.953125 221.039062 C 70.835938 220.753906 70.746094 220.464844 70.6875 220.164062 C 70.625 219.859375 70.597656 219.558594 70.597656 219.25 L 70.597656 181.851562 C 70.597656 181.546875 70.625 181.242188 70.6875 180.941406 C 70.746094 180.640625 70.835938 180.347656 70.953125 180.0625 C 71.070312 179.78125 71.214844 179.511719 71.382812 179.257812 C 71.554688 179 71.75 178.765625 71.964844 178.546875 C 72.183594 178.332031 72.417969 178.136719 72.671875 177.964844 C 72.929688 177.796875 73.199219 177.652344 73.480469 177.535156 C 73.765625 177.417969 74.058594 177.328125 74.359375 177.269531 C 74.660156 177.207031 74.964844 177.179688 75.269531 177.179688 L 215.511719 177.179688 C 215.816406 177.179688 216.121094 177.207031 216.421875 177.269531 C 216.722656 177.328125 217.015625 177.417969 217.300781 177.535156 C 217.582031 177.652344 217.851562 177.796875 218.109375 177.964844 C 218.363281 178.136719 218.597656 178.332031 218.816406 178.546875 C 219.03125 178.765625 219.226562 179 219.398438 179.257812 C 219.566406 179.511719 219.710938 179.78125 219.828125 180.0625 C 219.945312 180.347656 220.035156 180.640625 220.09375 180.941406 C 220.15625 181.242188 220.183594 181.546875 220.183594 181.851562 Z M 210.835938 167.828125 L 79.945312 167.828125 L 79.945312 153.535156 C 83.324219 149.667969 95.558594 137.421875 111.265625 142.425781 C 114.539062 143.46875 118.632812 144.9375 123.304688 146.605469 C 147.835938 155.390625 187.195312 169.484375 210.835938 159.882812 Z M 145.390625 60.3125 C 169.921875 60.3125 184.40625 63.644531 192.605469 66.804688 C 188.628906 67.5 184.757812 68.574219 180.988281 70.019531 C 180.554688 70.199219 180.15625 70.441406 179.796875 70.738281 C 179.433594 71.039062 179.125 71.386719 178.867188 71.777344 C 178.609375 72.171875 178.414062 72.59375 178.285156 73.042969 C 178.15625 73.492188 178.09375 73.953125 178.101562 74.421875 C 178.109375 74.894531 178.1875 75.351562 178.332031 75.796875 C 178.480469 76.242188 178.6875 76.65625 178.960938 77.039062 C 179.230469 77.425781 179.550781 77.757812 179.925781 78.046875 C 180.296875 78.332031 180.703125 78.558594 181.140625 78.722656 C 181.636719 78.898438 229.535156 97.21875 229.535156 135.105469 C 229.527344 137.476562 229.316406 139.832031 228.90625 142.164062 C 228.5 144.5 227.898438 146.785156 227.101562 149.019531 C 226.304688 151.25 225.328125 153.402344 224.164062 155.46875 C 223.003906 157.535156 221.679688 159.488281 220.183594 161.332031 L 220.183594 151.855469 C 220.183594 151.417969 220.125 150.984375 220.003906 150.5625 C 219.882812 150.140625 219.703125 149.742188 219.472656 149.371094 C 219.238281 149 218.957031 148.667969 218.628906 148.375 C 218.304688 148.082031 217.941406 147.839844 217.546875 147.648438 C 217.152344 147.457031 216.734375 147.324219 216.304688 147.246094 C 215.871094 147.171875 215.433594 147.160156 215 147.207031 C 214.5625 147.257812 214.140625 147.363281 213.734375 147.53125 C 213.328125 147.699219 212.953125 147.917969 212.609375 148.191406 C 194.84375 162.28125 150.339844 146.359375 126.441406 137.800781 C 121.648438 136.082031 117.449219 134.582031 114.085938 133.511719 C 89.382812 125.664062 72.246094 148.097656 71.546875 149.054688 C 70.921875 149.886719 70.609375 150.820312 70.609375 151.859375 L 70.609375 160.152344 C 67.785156 156.566406 65.574219 152.636719 63.976562 148.359375 C 62.375 144.085938 61.46875 139.667969 61.246094 135.105469 C 61.246094 120.265625 76.207031 60.3125 145.390625 60.3125 Z M 168.722656 265.996094 C 165.816406 266.078125 162.953125 265.761719 160.132812 265.050781 C 157.3125 264.339844 154.640625 263.261719 152.117188 261.8125 C 148.945312 260.042969 145.597656 258.71875 142.070312 257.84375 C 138.542969 256.96875 134.964844 256.570312 131.335938 256.648438 C 127.035156 256.851562 122.8125 257.539062 118.671875 258.710938 C 114.527344 259.886719 110.570312 261.511719 106.800781 263.589844 C 106.800781 263.589844 83.839844 255.378906 80.269531 233.273438 L 123.699219 233.273438 C 124.503906 233.273438 125.300781 233.203125 126.09375 233.0625 C 126.886719 232.921875 127.660156 232.71875 128.414062 232.445312 C 129.171875 232.175781 129.898438 231.839844 130.597656 231.445312 C 131.296875 231.046875 131.957031 230.59375 132.578125 230.085938 C 133.203125 229.574219 133.773438 229.015625 134.300781 228.40625 C 134.824219 227.800781 135.296875 227.152344 135.710938 226.460938 C 136.125 225.773438 136.476562 225.054688 136.769531 224.304688 C 137.058594 223.554688 137.285156 222.785156 137.445312 222 L 138.78125 215.308594 C 138.933594 214.546875 139.210938 213.832031 139.609375 213.164062 C 140.011719 212.496094 140.511719 211.917969 141.113281 211.425781 C 141.714844 210.929688 142.382812 210.554688 143.117188 210.292969 C 143.847656 210.03125 144.601562 209.898438 145.382812 209.898438 C 146.160156 209.898438 146.914062 210.03125 147.648438 210.292969 C 148.378906 210.554688 149.046875 210.929688 149.648438 211.425781 C 150.25 211.917969 150.75 212.496094 151.152344 213.164062 C 151.550781 213.832031 151.828125 214.546875 151.980469 215.308594 L 153.335938 222 C 153.496094 222.785156 153.722656 223.554688 154.011719 224.304688 C 154.304688 225.054688 154.65625 225.773438 155.070312 226.460938 C 155.484375 227.152344 155.957031 227.800781 156.480469 228.40625 C 157.007812 229.015625 157.582031 229.574219 158.203125 230.085938 C 158.824219 230.59375 159.484375 231.046875 160.183594 231.445312 C 160.882812 231.839844 161.609375 232.175781 162.367188 232.445312 C 163.121094 232.71875 163.894531 232.921875 164.6875 233.0625 C 165.480469 233.203125 166.277344 233.273438 167.082031 233.273438 L 210.367188 233.273438 C 207.480469 249.78125 186.878906 265.996094 168.722656 265.996094 Z M 168.722656 265.996094 "/></g></g></svg>