<svg xmlns="http://www.w3.org/2000/svg" xmlns:xlink="http://www.w3.org/1999/xlink" width="500" zoomAndPan="magnify" viewBox="0 0 375 374.999991" height="500" preserveAspectRatio="xMidYMid meet" version="1.2"><defs><clipPath id="55a9eb1a87"><path d="M 57.359375 51.339844 L 317.609375 51.339844 L 317.609375 323.589844 L 57.359375 323.589844 Z M 57.359375 51.339844 "/></clipPath></defs><g id="51a649b62a"><g clip-rule="nonzero" clip-path="url(#55a9eb1a87)"><path style=" stroke:none;fill-rule:nonzero;fill:#000000;fill-opacity:1;" d="M 305.570312 323.585938 C 304.644531 323.253906 303.71875 322.921875 302.300781 322.414062 C 303.273438 321.414062 303.921875 320.144531 304.839844 319.910156 C 307.660156 319.179688 308.050781 317.105469 308.265625 314.789062 C 308.28125 314.613281 308.320312 314.410156 308.25 314.261719 C 306.171875 309.628906 307.332031 304.5 306.027344 299.753906 C 304.730469 295.042969 303.582031 290.28125 302.035156 285.65625 C 301.183594 283.121094 299.597656 280.835938 298.414062 278.40625 C 296.664062 274.800781 295.140625 271.078125 293.207031 267.582031 C 291.917969 265.246094 290.265625 263.039062 288.449219 261.078125 C 285.601562 258.003906 283.320312 254.609375 281.691406 250.78125 C 280.886719 248.902344 279.894531 247.464844 277.792969 246.792969 C 276.578125 246.40625 275.550781 245.417969 274.546875 244.769531 C 274.546875 249.667969 274.230469 254.6875 274.632812 259.644531 C 275.070312 265.027344 276.128906 270.359375 277.03125 275.695312 C 277.289062 277.246094 276.847656 278.273438 275.925781 279.527344 C 271.976562 284.882812 268.128906 290.324219 264.414062 295.847656 C 261.683594 299.902344 259.195312 304.128906 256.628906 308.292969 C 256.136719 309.09375 255.632812 309.929688 255.378906 310.820312 C 254.761719 313.003906 253.699219 314.765625 251.703125 315.992188 C 250.4375 316.769531 250.046875 317.894531 251.210938 319.214844 C 251.617188 319.675781 251.792969 320.339844 252.226562 321.207031 C 245.433594 322.382812 239.054688 321.519531 232.710938 319.851562 C 233.300781 316.699219 235 315.5625 237.832031 315.742188 C 241.339844 315.960938 243.726562 313.875 245.78125 311.304688 C 246.796875 310.03125 247.761719 308.660156 248.988281 307.621094 C 252.167969 304.925781 253.851562 301.269531 255.609375 297.683594 C 258.742188 291.296875 261.097656 284.644531 261.691406 277.472656 C 261.738281 276.949219 261.789062 276.375 262.027344 275.925781 C 263.402344 273.332031 262.761719 270.703125 262.457031 268 C 261.789062 262.148438 261.304688 256.273438 260.902344 250.398438 C 260.757812 248.304688 260.363281 246.667969 258.25 245.671875 C 257.46875 245.300781 256.808594 244.257812 256.5 243.378906 C 255.292969 239.914062 254.042969 236.5 251.769531 233.546875 C 250.835938 232.335938 251.078125 231.019531 251.625 229.691406 C 253.628906 224.789062 254.539062 219.632812 255.195312 214.105469 C 252.191406 214.078125 249.28125 213.605469 246.539062 215.078125 C 244.515625 216.167969 242.421875 217.160156 240.523438 218.445312 C 232.140625 224.105469 222.894531 226.769531 212.816406 226.730469 C 211.460938 226.726562 210.105469 226.789062 208.75 226.824219 C 207.164062 226.863281 205.507812 226.433594 204.425781 228.304688 C 204.0625 228.925781 202.917969 229.300781 202.082031 229.40625 C 198.125 229.921875 194.160156 230.410156 190.179688 230.675781 C 188.785156 230.765625 187.121094 230.554688 186.8125 228.5625 C 184.519531 230 184 231.472656 184.9375 233.882812 C 188.027344 241.847656 191.085938 249.824219 194.238281 257.761719 C 194.855469 259.324219 195.660156 260.871094 196.667969 262.203125 C 199.023438 265.320312 199.640625 268.703125 199.601562 272.589844 C 199.542969 278.84375 200.265625 285.070312 203.015625 290.875 C 204.320312 293.632812 205.609375 296.417969 206.609375 299.292969 C 207.628906 302.230469 208.332031 305.285156 209.074219 308.3125 C 209.210938 308.875 208.953125 309.589844 208.730469 310.179688 C 207.984375 312.15625 208.101562 313.988281 209.445312 315.683594 C 209.664062 315.957031 209.84375 316.265625 210.007812 316.578125 C 211.082031 318.609375 210.652344 319.78125 208.417969 319.839844 C 202.484375 319.992188 196.542969 319.890625 190.582031 319.890625 C 190.773438 316.964844 192.667969 315.289062 195.128906 315.453125 C 199.027344 315.710938 200.914062 312.84375 199.4375 309.238281 C 198.839844 307.777344 198.511719 306.023438 198.6875 304.46875 C 198.988281 301.757812 198.660156 299.242188 197.796875 296.6875 C 196.796875 293.730469 195.972656 290.710938 195.128906 287.707031 C 194.253906 284.589844 192.851562 281.808594 190.625 279.402344 C 187.035156 275.519531 185.316406 270.746094 184.484375 265.617188 C 183.59375 260.113281 181.679688 255.035156 178.351562 250.527344 C 178.011719 250.066406 177.628906 249.632812 176.933594 248.78125 C 175.582031 253.707031 174.242188 258.210938 173.144531 262.777344 C 172.65625 264.8125 172.359375 266.988281 172.507812 269.0625 C 172.699219 271.753906 172.171875 274.117188 170.496094 276.136719 C 167.050781 280.285156 165.902344 285.292969 165.367188 290.394531 C 164.828125 295.535156 164.777344 300.734375 164.660156 305.910156 C 164.613281 307.980469 164.445312 309.898438 163.003906 311.519531 C 161.84375 312.824219 162.1875 314.054688 163.214844 315.308594 C 166.242188 318.996094 165.785156 320.246094 161.128906 321.132812 C 157.335938 321.855469 153.589844 322.226562 149.769531 320.953125 C 148.40625 320.5 146.730469 321.089844 145.214844 320.957031 C 144.171875 320.867188 143.167969 320.359375 142.144531 320.035156 C 142.59375 318.933594 142.789062 317.582031 143.554688 316.789062 C 144.4375 315.878906 145.757812 315.207031 147.003906 314.878906 C 150.4375 313.980469 152.847656 311.507812 153.570312 308.015625 C 153.824219 306.789062 154.3125 305.535156 154.980469 304.472656 C 157.21875 300.921875 157.820312 296.882812 158.609375 292.902344 C 159.183594 290.015625 159.617188 287.09375 159.960938 284.167969 C 160.097656 282.972656 159.875 281.71875 159.726562 280.503906 C 159.425781 278 159.070312 275.5 158.726562 273 C 158.636719 272.371094 158.429688 271.746094 158.402344 271.117188 C 158.359375 270.199219 158.195312 269.195312 158.488281 268.371094 C 160.960938 261.449219 163.847656 254.664062 164.996094 247.328125 C 165.613281 243.367188 166.414062 239.433594 167 235.46875 C 167.132812 234.566406 166.855469 233.527344 166.519531 232.644531 C 165.222656 229.25 163.851562 225.886719 162.441406 222.539062 C 162.25 222.074219 161.738281 221.558594 161.273438 221.429688 C 157.570312 220.410156 155.0625 218.152344 153.839844 214.507812 C 153.484375 213.449219 152.789062 213.039062 151.714844 213.046875 C 150.125 213.054688 148.53125 212.925781 146.945312 212.992188 C 141.527344 213.207031 136.097656 213.65625 130.554688 211.703125 C 130.390625 214.167969 130.238281 216.4375 130.089844 218.710938 C 129.414062 229.246094 128.726562 239.78125 128.105469 250.324219 C 128.066406 251.019531 128.644531 251.730469 128.820312 252.464844 C 129.148438 253.8125 129.40625 255.179688 129.660156 256.542969 C 129.746094 257 129.855469 257.523438 129.71875 257.929688 C 129.558594 258.398438 129.128906 258.773438 128.816406 259.1875 C 127.789062 258.300781 126.160156 260.632812 125.527344 258.753906 C 125.050781 257.339844 125.183594 255.710938 125.125 254.171875 C 125.109375 253.726562 125.214844 253.105469 125.511719 252.851562 C 126.875 251.683594 126.65625 250.113281 126.75 248.617188 C 127.507812 236.550781 128.230469 224.480469 129.046875 212.417969 C 129.144531 210.949219 128.671875 210.039062 127.367188 209.789062 C 122.390625 208.84375 119.292969 205.15625 115.785156 202.046875 C 114.773438 201.148438 113.828125 200.117188 112.6875 199.417969 C 109.378906 197.394531 108.214844 194.183594 107.238281 190.679688 C 106.457031 187.871094 105.238281 185.171875 104.082031 182.484375 C 103.703125 181.605469 102.910156 180.910156 102.296875 180.121094 C 99.796875 182.453125 97.847656 182.785156 95.449219 181.332031 C 95.796875 181.15625 96.09375 181.003906 96.402344 180.851562 C 95.390625 179.90625 94.386719 178.96875 93.386719 178.035156 C 93.992188 177.589844 94.660156 177.097656 95.328125 176.605469 C 95.25 176.480469 95.171875 176.359375 95.09375 176.234375 C 94.695312 176.46875 94.296875 176.703125 93.8125 176.984375 C 93.738281 175.734375 93.683594 174.75 92.566406 173.878906 C 91.578125 173.109375 91.113281 171.671875 90.433594 170.5625 C 90.929688 169.808594 91.417969 169.058594 91.9375 168.269531 C 90.9375 168.441406 90.125 168.578125 89.316406 168.71875 C 89.285156 168.566406 89.253906 168.410156 89.222656 168.257812 C 89.820312 168.03125 90.417969 167.804688 91.285156 167.476562 C 88.90625 166.558594 89.636719 164.925781 89.792969 163.59375 C 88.792969 163.199219 87.875 162.835938 86.960938 162.472656 C 86.996094 162.300781 87.03125 162.125 87.070312 161.953125 L 88.65625 161.953125 C 88.675781 161.828125 88.695312 161.707031 88.71875 161.582031 C 88.375 161.527344 87.945312 161.582031 87.707031 161.394531 C 87.339844 161.101562 87.101562 160.648438 86.804688 160.261719 C 87.226562 160.078125 87.644531 159.875 88.074219 159.710938 C 88.519531 159.539062 88.976562 159.40625 89.429688 159.253906 C 89.339844 159.042969 89.253906 158.832031 89.164062 158.621094 C 88.949219 158.789062 88.734375 158.960938 88.15625 159.414062 L 88.15625 153.089844 C 87.183594 153.582031 86.371094 153.988281 85.40625 154.476562 C 86.046875 154.886719 86.527344 155.195312 87.007812 155.503906 C 86.890625 155.652344 86.769531 155.800781 86.652344 155.949219 C 85.976562 155.40625 84.789062 154.898438 84.742188 154.304688 C 84.675781 153.40625 85.402344 152.449219 85.613281 151.378906 C 85.132812 151.84375 84.648438 152.304688 84.164062 152.765625 C 82.214844 150.90625 81.355469 148.613281 81.144531 146.089844 C 81.03125 144.761719 80.398438 144.039062 79.34375 143.304688 C 76.496094 141.308594 73.804688 139.09375 70.964844 137.09375 C 70.3125 136.632812 69.269531 136.402344 68.472656 136.519531 C 65.832031 136.90625 63.296875 136.769531 60.839844 135.695312 C 58.777344 134.792969 58.625 133.90625 60.257812 132.414062 C 59.289062 131.820312 58.324219 131.234375 57.359375 130.644531 C 57.359375 130.054688 57.359375 129.464844 57.359375 128.875 C 58.464844 126.917969 59.5625 124.960938 60.679688 123.015625 C 60.835938 122.738281 61.066406 122.488281 61.304688 122.269531 C 62.058594 121.574219 63.019531 121.019531 63.558594 120.1875 C 65.011719 117.925781 66.964844 116.636719 69.652344 116.554688 C 73.773438 116.429688 77.894531 116.308594 82.015625 116.269531 C 82.863281 116.261719 83.824219 116.449219 84.546875 116.871094 C 87.488281 118.59375 90.589844 119.082031 93.890625 118.386719 C 95.621094 118.023438 97.359375 117.675781 99.046875 117.160156 C 103.800781 115.707031 108.449219 115.929688 113.066406 117.742188 C 113.558594 117.933594 114.34375 117.875 114.792969 117.601562 C 117.179688 116.136719 119.421875 116.167969 121.6875 117.777344 C 120.777344 121.195312 117.664062 124.101562 119.625 128.089844 C 119.714844 128.277344 119.679688 128.566406 119.621094 128.785156 C 118.515625 132.863281 121.578125 135.878906 122.339844 139.476562 C 122.351562 139.535156 122.386719 139.585938 122.410156 139.640625 C 123.253906 140.292969 124.097656 140.949219 124.941406 141.601562 C 125.195312 141.867188 125.445312 142.132812 125.757812 142.464844 C 125.292969 142.496094 124.972656 142.515625 124.160156 142.570312 C 125.664062 143.417969 126.726562 144.011719 127.785156 144.605469 C 127.757812 144.695312 127.726562 144.785156 127.695312 144.878906 C 126.726562 144.640625 125.757812 144.402344 124.546875 144.105469 C 125.246094 144.890625 125.78125 145.488281 126.402344 146.1875 C 125.878906 146.285156 125.511719 146.355469 125.347656 146.386719 L 125.347656 155.546875 C 126.261719 155.195312 127.078125 154.894531 127.882812 154.574219 C 137.53125 150.691406 146.621094 145.710938 155.523438 140.378906 C 164.132812 135.222656 172.375 129.550781 179.941406 122.929688 C 180.570312 122.382812 180.808594 121.886719 180.789062 120.894531 C 180.757812 119.242188 181.144531 117.480469 181.8125 115.96875 C 182.117188 115.277344 183.511719 115.066406 184.371094 114.65625 C 184.140625 114.007812 183.886719 113.289062 183.628906 112.574219 C 183.820312 112.402344 184.015625 112.230469 184.207031 112.0625 C 185.738281 113.253906 187.246094 114.472656 188.808594 115.617188 C 189.308594 115.980469 190.003906 116.4375 190.523438 116.347656 C 191.820312 116.132812 193.066406 115.625 194.257812 115.261719 C 194.5625 113.707031 194.703125 112.097656 195.203125 110.609375 C 196.5 106.765625 196.992188 102.839844 197.078125 98.796875 C 197.105469 97.425781 197.929688 96.054688 198.476562 94.71875 C 199.003906 93.425781 200.039062 92.210938 200.152344 90.902344 C 200.519531 86.675781 201.894531 83.136719 205.621094 80.789062 C 205.648438 80.773438 205.625 80.675781 205.625 80.53125 C 204.707031 80.628906 203.785156 80.820312 202.867188 80.796875 C 202.226562 80.777344 201.320312 80.667969 201.007812 80.246094 C 199.828125 78.65625 200.015625 76.980469 201.078125 75.324219 C 202.078125 73.769531 201.601562 70.746094 200.191406 69.511719 C 200.460938 69.015625 200.707031 68.484375 201.019531 67.992188 C 202.007812 66.449219 202.058594 63.496094 201 62.058594 C 199.882812 60.542969 199.820312 58.898438 200.21875 57.171875 C 200.882812 54.308594 202.777344 52.515625 205.367188 51.34375 L 208.199219 51.34375 C 212.566406 54.257812 217.519531 56.183594 221.574219 59.667969 C 224.5 62.179688 225.136719 65.933594 222.539062 68.832031 C 221.792969 69.664062 220.839844 70.304688 219.914062 71.085938 C 221.113281 72.160156 223.339844 72.183594 223.042969 74.46875 C 223.03125 74.558594 223.28125 74.699219 223.425781 74.792969 C 228.597656 78.230469 231.332031 83.394531 233.410156 89 C 233.960938 90.492188 234.617188 91.773438 236.199219 92.414062 C 237.472656 92.929688 237.648438 93.664062 236.738281 94.855469 C 236.285156 95.449219 236.292969 96.476562 236.285156 97.304688 C 236.28125 97.96875 236.574219 98.632812 236.738281 99.292969 C 236.546875 99.40625 236.355469 99.519531 236.164062 99.628906 C 234.527344 97.257812 232.890625 94.886719 230.96875 92.105469 C 231.359375 93.613281 231.652344 94.625 231.882812 95.652344 C 233.484375 102.664062 235.054688 109.675781 238.382812 116.152344 C 239.617188 118.546875 239.730469 121.207031 239.089844 123.761719 C 238.246094 127.125 237.078125 130.402344 236.113281 133.738281 C 235.957031 134.277344 235.914062 135.0625 236.195312 135.484375 C 238.320312 138.710938 241.222656 139.875 244.90625 138.832031 C 247.734375 138.03125 250.496094 136.976562 253.273438 135.992188 C 253.621094 135.867188 254.101562 135.535156 254.152344 135.234375 C 254.519531 133.050781 254.917969 130.855469 255.042969 128.648438 C 255.105469 127.550781 255.125 126.488281 256.246094 126.207031 C 257.089844 125.996094 258.457031 126.003906 258.894531 126.511719 C 259.4375 127.144531 259.429688 128.410156 259.339844 129.371094 C 259.242188 130.382812 258.691406 131.347656 258.480469 132.363281 C 258.164062 133.914062 257.96875 135.492188 257.722656 137.039062 C 260.21875 138.542969 261.246094 140.300781 260.707031 142.28125 C 260.164062 144.257812 259.289062 146.078125 261.242188 147.996094 C 261.941406 148.6875 261.582031 150.445312 261.726562 151.710938 C 261.910156 153.316406 261.652344 155.210938 262.429688 156.449219 C 263.320312 157.863281 263.890625 159.183594 264.066406 160.792969 C 264.140625 161.46875 264.398438 162.175781 264.75 162.761719 C 265.382812 163.828125 266.207031 164.746094 265.515625 166.164062 C 265.359375 166.480469 265.832031 167.265625 266.203125 167.644531 C 267.355469 168.824219 268.660156 169.851562 269.796875 171.042969 C 271.460938 172.78125 273.085938 174.566406 274.628906 176.414062 C 276.851562 179.074219 278.855469 181.929688 281.191406 184.480469 C 283.652344 187.164062 285.199219 190.152344 285.394531 193.777344 C 285.570312 197.070312 285.558594 200.378906 285.78125 203.671875 C 285.984375 206.65625 286.042969 209.761719 289.113281 211.796875 C 288.652344 211.832031 288.402344 211.851562 287.796875 211.894531 C 289.015625 213.371094 290.097656 214.683594 291.148438 215.960938 C 291.023438 215.988281 290.691406 216.070312 290.132812 216.203125 C 292.175781 217.984375 294.042969 219.613281 295.917969 221.25 C 294.058594 222.945312 292.96875 220.675781 291.464844 220.109375 C 291.925781 222.433594 293.816406 223.25 295.757812 224.316406 C 295.238281 224.894531 294.824219 225.359375 294.378906 225.855469 C 295.085938 227.070312 295.816406 228.328125 296.632812 229.730469 C 293.96875 229.265625 294.6875 226.195312 293.070312 225.078125 C 292.925781 225.164062 292.78125 225.25 292.632812 225.339844 C 293.710938 227.710938 294.789062 230.085938 295.882812 232.492188 C 295.367188 232.046875 294.894531 231.632812 294.417969 231.222656 C 294.992188 232.871094 295.726562 234.34375 296.632812 235.703125 C 297.710938 237.3125 298.890625 238.859375 300.105469 240.371094 C 301.414062 242 301.3125 242.804688 300 243.34375 C 297.175781 241.234375 294.546875 239.265625 291.839844 237.242188 C 292.277344 238.894531 292.605469 240.175781 292.960938 241.449219 C 293.136719 242.066406 293.242188 242.746094 293.582031 243.269531 C 297.78125 249.804688 301.46875 256.691406 306.984375 262.328125 C 307.902344 263.265625 308.511719 264.902344 308.554688 266.238281 C 308.679688 270.179688 308.265625 274.136719 308.398438 278.078125 C 308.71875 287.371094 309.773438 296.523438 314.050781 305.03125 C 314.757812 306.441406 314.976562 308.414062 314.644531 309.960938 C 313.96875 313.132812 314.722656 315.371094 317.609375 316.859375 L 317.609375 318.277344 C 314.660156 320.046875 311.707031 321.816406 308.757812 323.585938 Z M 178.570312 126.519531 C 172.949219 130.28125 166.832031 134.472656 160.617188 138.519531 C 149.925781 145.476562 138.832031 151.691406 126.972656 156.46875 C 126.65625 156.597656 126.101562 156.902344 126.125 156.972656 C 126.640625 158.558594 124.988281 157.566406 124.65625 158.238281 C 125.070312 158.742188 125.488281 159.246094 125.90625 159.75 L 125.753906 159.945312 C 125.203125 159.671875 124.65625 159.398438 124.015625 159.078125 C 123.921875 160.308594 123.839844 161.398438 123.753906 162.488281 C 124.3125 162.628906 124.546875 162.984375 124.734375 163.363281 C 124.863281 163.632812 124.867188 163.972656 125.03125 164.214844 C 125.859375 165.4375 126.722656 166.640625 127.574219 167.851562 C 127.21875 168.394531 126.910156 168.867188 126.605469 169.335938 C 126.765625 169.257812 126.925781 169.179688 127.085938 169.101562 C 127.824219 169.996094 128.492188 170.964844 129.320312 171.769531 C 130.59375 173.011719 131.824219 174.820312 133.347656 175.164062 C 135.988281 175.753906 138.867188 175.679688 141.589844 175.386719 C 146.183594 174.898438 149.847656 172.085938 153.746094 169.902344 C 156.214844 168.523438 158.085938 166.558594 159.660156 164.199219 C 160.957031 162.25 162.246094 159.949219 164.140625 158.820312 C 168.699219 156.101562 170.441406 151.964844 171.398438 147.179688 C 171.457031 146.894531 171.5625 146.617188 171.660156 146.335938 C 174.039062 139.511719 176.421875 132.683594 178.570312 126.519531 Z M 186.011719 131.707031 C 184.339844 132.09375 182.542969 132.0625 181.683594 130.570312 C 180.945312 129.28125 180.960938 127.5625 180.566406 125.6875 C 178.25 131.589844 176.027344 137.25 173.804688 142.90625 C 177.566406 140.527344 180.964844 137.941406 184.480469 135.527344 C 185.890625 134.554688 186.992188 133.703125 186.011719 131.707031 Z M 182.378906 122.832031 C 182.378906 124.863281 182.175781 126.757812 182.472656 128.566406 C 182.605469 129.371094 183.695312 130.507812 184.460938 130.605469 C 185.515625 130.738281 186.363281 129.933594 186.488281 128.480469 C 186.574219 127.484375 187.402344 126.554688 188.03125 125.339844 C 187.136719 123.46875 185.046875 123.140625 182.378906 122.832031 Z M 299.152344 240.984375 C 296.433594 237.988281 293.714844 234.988281 290.996094 231.992188 C 292.320312 236.246094 294.914062 239.355469 299.152344 240.984375 Z M 225.839844 83.523438 C 225.378906 80.863281 224.601562 80.066406 222.519531 80 C 223.714844 81.273438 224.777344 82.398438 225.839844 83.523438 Z M 225.839844 83.523438 "/></g><path style=" stroke:none;fill-rule:nonzero;fill:#000000;fill-opacity:1;" d="M 122.410156 139.640625 C 122.324219 139.15625 122.242188 138.675781 122.066406 137.675781 C 123.300781 139.027344 124.191406 139.984375 125.042969 140.972656 C 125.132812 141.078125 124.980469 141.386719 124.941406 141.601562 C 124.097656 140.949219 123.253906 140.292969 122.410156 139.640625 Z M 122.410156 139.640625 "/></g></svg>