<svg xmlns="http://www.w3.org/2000/svg" xmlns:xlink="http://www.w3.org/1999/xlink" width="500" zoomAndPan="magnify" viewBox="0 0 375 374.999991" height="500" preserveAspectRatio="xMidYMid meet" version="1.2"><defs><clipPath id="d1d56fbd74"><path d="M 300 51.628906 L 322.996094 51.628906 L 322.996094 101.78125 L 300 101.78125 Z M 300 51.628906 "/></clipPath></defs><g id="b5820d54c4"><path style=" stroke:none;fill-rule:nonzero;fill:#100f0d;fill-opacity:1;" d="M 207.207031 227.507812 C 211.542969 228.066406 215.847656 229.683594 219.941406 231.171875 C 224.941406 232.988281 231.226562 235.378906 236.597656 234.554688 C 237.683594 234.390625 238.738281 234.09375 239.746094 233.652344 C 242.390625 232.503906 244.871094 230.96875 247.121094 229.164062 C 252.695312 224.695312 257.9375 217.515625 258.976562 210.113281 C 255.476562 212.242188 251.609375 213.753906 247.640625 214.777344 C 230.128906 219.257812 212.089844 220.628906 194.0625 220.421875 C 184.351562 220.3125 173.65625 217.394531 170.933594 206.820312 C 170.535156 205.277344 170.253906 203.652344 169.9375 202.089844 C 169.5 199.957031 169.039062 197.824219 168.472656 195.714844 C 167.914062 193.652344 165.738281 185.9375 162.90625 185.9375 C 160.074219 185.9375 157.890625 193.652344 157.339844 195.714844 C 156.773438 197.824219 156.308594 199.957031 155.875 202.089844 C 155.558594 203.652344 155.273438 205.277344 154.875 206.820312 C 152.152344 217.394531 141.460938 220.3125 131.746094 220.421875 C 113.71875 220.628906 95.679688 219.257812 78.175781 214.777344 C 74.203125 213.753906 70.335938 212.242188 66.832031 210.113281 C 67.875 217.515625 73.113281 224.695312 78.6875 229.164062 C 80.9375 230.96875 83.421875 232.503906 86.070312 233.652344 C 87.074219 234.09375 88.121094 234.390625 89.207031 234.554688 C 94.589844 235.378906 100.871094 232.988281 105.867188 231.171875 C 109.964844 229.683594 114.261719 228.066406 118.605469 227.507812 C 145.09375 224.046875 151.992188 237.757812 162.90625 237.757812 C 174.9375 237.757812 181.285156 224.121094 207.207031 227.507812 "/><path style=" stroke:none;fill-rule:nonzero;fill:#100f0d;fill-opacity:1;" d="M 70.640625 185.921875 C 68.890625 174.988281 70.390625 164.097656 73.832031 153.691406 C 80.0625 134.882812 86.757812 138.199219 104.09375 135.027344 C 123.730469 131.4375 143.402344 129.261719 163.351562 129.292969 C 183 129.324219 202.378906 131.484375 221.714844 135.027344 C 239.054688 138.199219 245.75 134.882812 251.976562 153.691406 C 255.421875 164.097656 256.921875 174.988281 255.171875 185.921875 C 253.808594 194.464844 248.207031 198.746094 240.511719 200.804688 C 224.972656 204.964844 208.859375 206.1875 192.859375 206 C 191.128906 205.976562 184.550781 205.703125 183.941406 203.222656 C 183.03125 199.539062 182.511719 195.730469 181.550781 191.976562 C 181.109375 190.269531 180.589844 188.230469 179.976562 186.039062 C 184.359375 192.929688 188.730469 199.65625 193.371094 201.550781 C 200.558594 204.496094 207.488281 202.253906 214.609375 200.414062 C 208.84375 200.195312 199.863281 200.746094 194.890625 198.167969 C 184.710938 192.890625 172.269531 140.378906 148.960938 171.183594 C 129.792969 196.515625 144.078125 199.171875 111.199219 200.414062 C 136.480469 206.945312 138.199219 198.402344 146.039062 185.324219 C 145.328125 187.785156 144.746094 190.082031 144.257812 191.976562 C 143.292969 195.730469 142.777344 199.539062 141.871094 203.222656 C 141.257812 205.703125 134.679688 205.976562 132.953125 206 C 116.953125 206.1875 100.835938 204.964844 85.296875 200.804688 C 77.609375 198.746094 72.003906 194.464844 70.640625 185.921875 Z M 109.445312 124.347656 C 127.601562 120.6875 144.167969 120.277344 162.546875 120.25 L 162.625 120.25 C 188.640625 120.285156 221.964844 122.019531 245.703125 133.609375 C 258.132812 139.675781 260.972656 159.882812 262.109375 171.90625 C 259.710938 161.316406 256.09375 140.910156 244.804688 135.769531 C 214.574219 121.996094 143.039062 121.457031 110.007812 127.382812 C 74.675781 133.71875 70.832031 137.546875 63.0625 171.90625 C 66.429688 136.324219 75.421875 131.195312 109.445312 124.347656 Z M 131.730469 218.808594 C 142.332031 218.691406 151.03125 215.269531 153.3125 206.417969 C 154.5 201.816406 156.757812 184.320312 162.90625 184.320312 C 169.046875 184.320312 171.316406 201.816406 172.496094 206.417969 C 174.777344 215.269531 183.476562 218.691406 194.078125 218.808594 C 212.328125 219.011719 230.019531 217.625 247.238281 213.210938 C 259.75 210.007812 269.664062 202.097656 272.015625 188.035156 C 274 176.15625 272.921875 163.296875 268.144531 149.5 C 259.660156 124.976562 250.523438 126.59375 226.609375 122.410156 C 206.25 118.847656 185.453125 116.636719 163.386719 116.484375 C 140.984375 116.570312 119.867188 118.792969 99.203125 122.410156 C 75.28125 126.59375 66.15625 124.976562 57.660156 149.5 C 52.886719 163.296875 51.804688 176.15625 53.792969 188.035156 C 56.140625 202.097656 66.058594 210.007812 78.570312 213.210938 C 95.796875 217.625 113.480469 219.011719 131.730469 218.808594 "/><path style=" stroke:none;fill-rule:nonzero;fill:#100f0d;fill-opacity:1;" d="M 82.757812 188.753906 C 77.164062 183.328125 81.5625 173.59375 82.425781 166.800781 C 83.53125 158.117188 81.125 152.117188 87.042969 146.753906 L 86.875 146.84375 C 94.472656 142.472656 90.808594 144.898438 97.855469 139.542969 C 88.484375 141.550781 80.976562 142.171875 78.085938 152.171875 C 76.453125 161.476562 70.777344 183.75 79.6875 190.792969 C 81.679688 192.371094 86.457031 194.753906 88.683594 195.914062 C 85.207031 190.421875 87.507812 193.347656 82.757812 188.753906 "/><path style=" stroke:none;fill-rule:nonzero;fill:#100f0d;fill-opacity:1;" d="M 163.386719 114.164062 C 185.453125 114.320312 206.25 116.53125 226.609375 120.089844 C 231.019531 120.863281 234.925781 121.441406 238.421875 122.019531 L 238.421875 120.761719 C 238.421875 115.921875 234.363281 112.925781 229.621094 111.964844 C 184.1875 102.730469 139.738281 102.738281 96.1875 111.964844 C 91.453125 112.96875 87.390625 115.921875 87.390625 120.761719 L 87.390625 122.019531 C 90.886719 121.441406 94.792969 120.863281 99.203125 120.089844 C 119.867188 116.480469 140.984375 114.25 163.386719 114.164062 "/><path style=" stroke:none;fill-rule:nonzero;fill:#100f0d;fill-opacity:1;" d="M 239.496094 146.753906 C 245.414062 152.117188 243.007812 158.117188 244.113281 166.800781 C 244.976562 173.59375 249.375 183.328125 243.773438 188.753906 C 239.03125 193.347656 241.332031 190.421875 237.855469 195.914062 C 240.082031 194.753906 244.859375 192.371094 246.851562 190.792969 C 255.757812 183.75 250.085938 161.476562 248.453125 152.171875 C 245.5625 142.171875 238.054688 141.550781 228.683594 139.542969 C 235.730469 144.898438 232.066406 142.472656 239.664062 146.84375 L 239.496094 146.753906 "/><path style=" stroke:none;fill-rule:nonzero;fill:#100f0d;fill-opacity:1;" d="M 222.148438 280.808594 C 221.589844 279.238281 219.847656 278.414062 218.273438 278.976562 L 155.148438 301.628906 C 153.582031 302.195312 152.757812 303.9375 153.324219 305.503906 L 158.78125 320.714844 C 159.34375 322.28125 161.085938 323.109375 162.65625 322.546875 L 225.78125 299.890625 C 227.347656 299.332031 228.175781 297.589844 227.609375 296.015625 L 222.148438 280.808594 "/><path style=" stroke:none;fill-rule:nonzero;fill:#100f0d;fill-opacity:1;" d="M 198.433594 270.335938 C 199.84375 268.097656 200.660156 265.449219 200.660156 262.605469 C 200.660156 262.273438 200.648438 261.9375 200.625 261.609375 C 198.539062 260.726562 196.460938 259.824219 194.339844 259.03125 C 193.8125 258.835938 193.339844 259.28125 192.996094 259.996094 C 192.445312 261.140625 191.863281 262.273438 191.367188 263.449219 C 191.042969 264.214844 191.207031 264.671875 191.941406 265.171875 C 194.230469 266.730469 196.300781 268.574219 198.433594 270.335938 "/><path style=" stroke:none;fill-rule:nonzero;fill:#100f0d;fill-opacity:1;" d="M 204.285156 263.71875 C 204.339844 262.566406 204.167969 262.320312 203.445312 262.035156 L 202.230469 261.5625 C 201.289062 261.191406 201.421875 261.980469 201.421875 262.847656 C 201.421875 270.871094 194.917969 277.378906 186.890625 277.378906 C 178.863281 277.378906 172.359375 270.871094 172.359375 262.847656 C 172.359375 258.9375 173.898438 255.382812 176.414062 252.773438 C 177.148438 252.003906 176.933594 251.675781 176.402344 251.464844 L 175.109375 250.960938 C 174.199219 250.601562 173.835938 251.300781 173.390625 251.847656 C 170.945312 254.84375 169.472656 258.671875 169.472656 262.847656 C 169.472656 272.464844 177.269531 280.257812 186.890625 280.257812 C 196.214844 280.257812 203.835938 272.929688 204.285156 263.71875 "/><path style=" stroke:none;fill-rule:nonzero;fill:#100f0d;fill-opacity:1;" d="M 181.8125 261.910156 C 182.628906 261.996094 183.226562 261.5625 183.539062 260.757812 C 184.046875 259.445312 184.507812 258.109375 185.074219 256.824219 C 185.3125 256.285156 185.21875 255.625 184.402344 255.289062 C 182.085938 254.320312 179.632812 253.683594 177.238281 252.898438 C 175.136719 254.996094 173.679688 257.730469 173.171875 260.785156 C 176.054688 261.175781 178.929688 261.597656 181.8125 261.910156 "/><path style=" stroke:none;fill-rule:nonzero;fill:#100f0d;fill-opacity:1;" d="M 186.890625 281.699219 C 181.285156 281.699219 176.046875 279.21875 172.507812 275.03125 C 170.964844 281.332031 171.320312 287.238281 174.226562 293.257812 L 190.40625 287.449219 C 189.078125 285.726562 188.582031 283.796875 188.789062 281.601562 C 188.15625 281.667969 187.523438 281.699219 186.890625 281.699219 "/><path style=" stroke:none;fill-rule:nonzero;fill:#100f0d;fill-opacity:1;" d="M 226.183594 279.054688 C 225.09375 279.601562 223.992188 280.125 222.878906 280.632812 L 228.226562 295.535156 C 229.929688 294.769531 231.613281 293.976562 233.273438 293.144531 C 233.199219 293.027344 233.125 292.90625 233.0625 292.78125 L 226.183594 279.054688 "/><path style=" stroke:none;fill-rule:nonzero;fill:#100f0d;fill-opacity:1;" d="M 232.617188 274.054688 C 232.03125 272.886719 230.59375 272.410156 229.429688 272.992188 L 227.535156 273.941406 C 226.371094 274.527344 225.894531 275.964844 226.476562 277.128906 L 234.070312 292.277344 C 234.652344 293.441406 236.089844 293.917969 237.257812 293.335938 L 239.144531 292.382812 C 240.316406 291.800781 240.792969 290.367188 240.210938 289.199219 L 232.617188 274.054688 "/><path style=" stroke:none;fill-rule:nonzero;fill:#100f0d;fill-opacity:1;" d="M 256.273438 256.273438 L 267.5 267.203125 C 268.066406 266.566406 268.621094 265.921875 269.171875 265.269531 L 256.804688 255.667969 C 256.628906 255.871094 256.453125 256.070312 256.273438 256.273438 "/><path style=" stroke:none;fill-rule:nonzero;fill:#100f0d;fill-opacity:1;" d="M 234.179688 274.660156 L 241.214844 288.691406 C 241.234375 288.726562 241.242188 288.757812 241.257812 288.789062 C 241.945312 288.386719 242.625 287.96875 243.300781 287.542969 L 234.765625 274.308594 C 234.570312 274.421875 234.375 274.546875 234.179688 274.660156 "/><path style=" stroke:none;fill-rule:nonzero;fill:#100f0d;fill-opacity:1;" d="M 280.550781 249.628906 L 266.125 240.742188 C 265.015625 240.058594 263.539062 240.414062 262.855469 241.523438 L 261.746094 243.320312 C 261.066406 244.429688 261.417969 245.910156 262.523438 246.589844 L 276.949219 255.472656 C 278.058594 256.15625 279.535156 255.800781 280.21875 254.695312 L 281.328125 252.894531 C 282.007812 251.789062 281.65625 250.3125 280.550781 249.628906 "/><path style=" stroke:none;fill-rule:nonzero;fill:#100f0d;fill-opacity:1;" d="M 262.332031 248.652344 L 274.648438 258.210938 C 275.113281 257.554688 275.574219 256.890625 276.023438 256.226562 L 262.753906 248.054688 C 262.617188 248.257812 262.476562 248.453125 262.332031 248.652344 "/><path style=" stroke:none;fill-rule:nonzero;fill:#100f0d;fill-opacity:1;" d="M 303.148438 103.464844 C 304.828125 149.90625 293.671875 190.464844 274.601562 227.554688 C 272.417969 231.796875 270.027344 236.230469 267.652344 240.363281 L 280.851562 248.488281 C 283.796875 243.332031 286.789062 237.957031 289.691406 232.765625 C 311.351562 194.011719 320.628906 150.621094 319.785156 103.03125 C 313.945312 103.175781 308.984375 103.320312 303.148438 103.464844 "/><g clip-rule="nonzero" clip-path="url(#d1d56fbd74)"><path style=" stroke:none;fill-rule:nonzero;fill:#100f0d;fill-opacity:1;" d="M 320.5625 51.863281 L 303.074219 68.464844 C 300.527344 70.882812 300.640625 71.503906 300.640625 74.636719 L 300.640625 98.785156 C 300.640625 100.125 301.734375 101.21875 303.074219 101.21875 L 320.5625 101.21875 C 321.902344 101.21875 323 100.125 323 98.785156 L 323 54.296875 C 323 52.957031 321.535156 50.941406 320.5625 51.863281 "/></g><path style=" stroke:none;fill-rule:nonzero;fill:#100f0d;fill-opacity:1;" d="M 274.207031 259.289062 C 269.855469 255.914062 265.5 252.535156 261.144531 249.15625 C 260.144531 248.378906 258.683594 248.5625 257.910156 249.5625 C 257.488281 250.109375 257.0625 250.65625 256.640625 251.199219 C 255.863281 252.199219 256.046875 253.65625 257.046875 254.433594 C 261.398438 257.8125 265.757812 261.191406 270.109375 264.570312 C 271.109375 265.347656 272.574219 265.164062 273.351562 264.160156 C 273.769531 263.617188 274.191406 263.078125 274.617188 262.53125 C 275.394531 261.53125 275.210938 260.070312 274.207031 259.289062 "/><path style=" stroke:none;fill-rule:nonzero;fill:#100f0d;fill-opacity:1;" d="M 242.757812 268.828125 C 242.5625 268.980469 242.355469 269.128906 242.152344 269.28125 L 250.699219 282.535156 C 251.378906 282.039062 252.050781 281.527344 252.71875 281.015625 L 242.828125 268.90625 C 242.804688 268.878906 242.777344 268.851562 242.757812 268.828125 "/><path style=" stroke:none;fill-rule:nonzero;fill:#100f0d;fill-opacity:1;" d="M 241.191406 269.871094 C 240.507812 268.804688 239.066406 268.492188 238.003906 269.175781 C 237.425781 269.550781 236.84375 269.921875 236.265625 270.296875 C 235.203125 270.988281 234.894531 272.425781 235.578125 273.484375 C 238.5625 278.121094 241.550781 282.753906 244.535156 287.378906 C 245.21875 288.445312 246.664062 288.757812 247.722656 288.074219 C 248.300781 287.699219 248.882812 287.328125 249.460938 286.949219 C 250.523438 286.269531 250.835938 284.824219 250.148438 283.761719 C 247.164062 279.128906 244.175781 274.496094 241.191406 269.871094 "/><path style=" stroke:none;fill-rule:nonzero;fill:#100f0d;fill-opacity:1;" d="M 248.796875 264.03125 C 248.011719 263.066406 246.5625 262.917969 245.601562 263.707031 C 245.070312 264.136719 244.546875 264.570312 244.015625 265 C 243.054688 265.789062 242.910156 267.234375 243.699219 268.195312 C 247.140625 272.410156 250.582031 276.625 254.023438 280.839844 C 254.8125 281.804688 256.253906 281.949219 257.222656 281.164062 C 257.746094 280.730469 258.277344 280.300781 258.800781 279.871094 C 259.769531 279.082031 259.914062 277.636719 259.125 276.671875 C 255.683594 272.460938 252.242188 268.246094 248.796875 264.03125 "/><path style=" stroke:none;fill-rule:nonzero;fill:#100f0d;fill-opacity:1;" d="M 249.53125 263.15625 C 249.578125 263.210938 249.625 263.261719 249.671875 263.316406 L 259.484375 275.335938 C 260.117188 274.75 260.75 274.164062 261.375 273.570312 L 250.117188 262.609375 C 249.925781 262.796875 249.726562 262.976562 249.53125 263.15625 "/><path style=" stroke:none;fill-rule:nonzero;fill:#100f0d;fill-opacity:1;" d="M 255.417969 257.003906 C 254.523438 256.136719 253.078125 256.152344 252.203125 257.046875 C 251.726562 257.53125 251.25 258.019531 250.777344 258.507812 C 249.90625 259.402344 249.925781 260.851562 250.820312 261.722656 C 254.71875 265.515625 258.617188 269.3125 262.511719 273.109375 C 263.414062 273.984375 264.859375 273.960938 265.730469 273.066406 C 266.203125 272.582031 266.679688 272.09375 267.152344 271.605469 C 268.023438 270.710938 268.003906 269.265625 267.109375 268.394531 C 263.210938 264.597656 259.3125 260.800781 255.417969 257.003906 "/></g></svg>