<svg xmlns="http://www.w3.org/2000/svg" xmlns:xlink="http://www.w3.org/1999/xlink" width="500" zoomAndPan="magnify" viewBox="0 0 375 374.999991" height="500" preserveAspectRatio="xMidYMid meet" version="1.2"><defs><clipPath id="3a3abfeed8"><path d="M 51.183594 51.183594 L 324.183594 51.183594 L 324.183594 324.183594 L 51.183594 324.183594 Z M 51.183594 51.183594 "/></clipPath><clipPath id="124f9ccbd2"><path d="M 51.183594 51.183594 L 324.183594 51.183594 L 324.183594 324.183594 L 51.183594 324.183594 Z M 51.183594 51.183594 "/></clipPath><clipPath id="72a413c227"><path d="M 51.183594 187.683594 C 51.183594 263.074219 112.296875 324.183594 187.683594 324.183594 C 263.074219 324.183594 324.183594 263.074219 324.183594 187.683594 C 324.183594 112.296875 263.074219 51.183594 187.683594 51.183594 C 112.296875 51.183594 51.183594 112.296875 51.183594 187.683594 "/></clipPath></defs><g id="c20abb76e5"><g clip-rule="nonzero" clip-path="url(#3a3abfeed8)"><path style=" stroke:none;fill-rule:nonzero;fill:#000000;fill-opacity:1;" d="M 51.183594 187.683594 C 51.183594 263.074219 112.296875 324.183594 187.683594 324.183594 C 263.074219 324.183594 324.183594 263.074219 324.183594 187.683594 C 324.183594 112.296875 263.074219 51.183594 187.683594 51.183594 C 112.296875 51.183594 51.183594 112.296875 51.183594 187.683594 "/></g><g clip-rule="nonzero" clip-path="url(#124f9ccbd2)"><g clip-rule="nonzero" clip-path="url(#72a413c227)"><path style=" stroke:none;fill-rule:nonzero;fill:#000000;fill-opacity:1;" d="M 51.183594 51.183594 L 324.183594 51.183594 L 324.183594 324.183594 L 51.183594 324.183594 Z M 51.183594 51.183594 "/></g></g><path style=" stroke:none;fill-rule:nonzero;fill:#ffffff;fill-opacity:1;" d="M 98.375 260.226562 L 113.191406 260.226562 L 113.191406 275.042969 L 98.375 275.042969 Z M 98.375 260.226562 "/><path style=" stroke:none;fill-rule:nonzero;fill:#ffffff;fill-opacity:1;" d="M 192.050781 128.402344 L 131.289062 128.402344 C 132.621094 111.625 147.300781 99.097656 164.078125 100.429688 C 179.007812 101.621094 190.867188 113.472656 192.050781 128.402344 Z M 192.050781 128.402344 "/><path style=" stroke:none;fill-rule:nonzero;fill:#ffffff;fill-opacity:1;" d="M 159.125 250.863281 L 150.25 250.863281 C 148.957031 250.863281 147.90625 251.910156 147.90625 253.203125 L 147.90625 275.042969 L 117.878906 275.042969 L 117.878906 257.886719 C 117.878906 256.597656 116.832031 255.546875 115.539062 255.546875 L 98.375 255.546875 L 98.375 242.726562 C 98.308594 229.359375 108.019531 217.953125 121.222656 215.875 L 131.625 214.207031 Z M 159.125 250.863281 "/><path style=" stroke:none;fill-rule:nonzero;fill:#ffffff;fill-opacity:1;" d="M 152.585938 255.546875 L 170.132812 255.546875 L 170.132812 275.042969 L 152.585938 275.042969 Z M 152.585938 255.546875 "/><path style=" stroke:none;fill-rule:nonzero;fill:#ffffff;fill-opacity:1;" d="M 225.125 242.726562 L 225.125 255.597656 C 225 255.578125 224.863281 255.5625 224.738281 255.5625 L 206.015625 255.5625 C 204.726562 255.5625 203.675781 256.605469 203.675781 257.902344 L 203.675781 275.0625 L 174.8125 275.0625 L 174.8125 253.203125 C 174.8125 251.914062 173.769531 250.863281 172.472656 250.863281 L 164.214844 250.863281 L 191.695312 214.207031 L 202.074219 215.859375 C 215.21875 217.976562 225.125 229.519531 225.125 242.726562 Z M 225.125 242.726562 "/><path style=" stroke:none;fill-rule:nonzero;fill:#ffffff;fill-opacity:1;" d="M 276.996094 189.886719 C 276.992188 190.804688 276.453125 191.628906 275.621094 192.007812 L 229.808594 212.746094 L 229.808594 167.40625 C 229.808594 167.027344 229.71875 166.660156 229.542969 166.324219 L 275.640625 187.75 C 276.46875 188.136719 277 188.96875 276.996094 189.886719 Z M 276.996094 189.886719 "/><path style=" stroke:none;fill-rule:nonzero;fill:#ffffff;fill-opacity:1;" d="M 229.800781 167.40625 L 229.800781 242.726562 C 229.796875 236.890625 228.175781 231.164062 225.121094 226.183594 L 225.121094 167.40625 C 225.121094 166.117188 226.171875 165.066406 227.460938 165.066406 C 228.332031 165.066406 229.128906 165.550781 229.535156 166.324219 C 229.71875 166.65625 229.808594 167.027344 229.800781 167.40625 Z M 229.800781 167.40625 "/><path style=" stroke:none;fill-rule:nonzero;fill:#ffffff;fill-opacity:1;" d="M 225.125 260.191406 L 225.125 275.042969 L 208.355469 275.042969 L 208.355469 260.226562 L 224.738281 260.226562 C 224.863281 260.226562 225 260.210938 225.125 260.191406 Z M 225.125 260.191406 "/><path style=" stroke:none;fill-rule:nonzero;fill:#ffffff;fill-opacity:1;" d="M 186.472656 213.390625 L 161.667969 246.460938 L 136.859375 213.375 L 151.027344 211.085938 C 152.164062 210.90625 152.996094 209.925781 152.996094 208.777344 L 152.996094 199.890625 C 155.832031 200.609375 158.746094 200.96875 161.675781 200.96875 C 164.527344 200.96875 167.371094 200.613281 170.132812 199.917969 L 170.132812 208.792969 C 170.132812 209.945312 170.96875 210.921875 172.105469 211.101562 Z M 186.472656 213.390625 "/><path style=" stroke:none;fill-rule:nonzero;fill:#ffffff;fill-opacity:1;" d="M 131.132812 149.464844 L 131.132812 165.808594 C 131.15625 178.488281 139.007812 189.832031 150.871094 194.316406 C 151.242188 194.355469 151.597656 194.484375 151.914062 194.6875 C 158.128906 196.777344 164.851562 196.800781 171.085938 194.761719 C 171.453125 194.484375 171.898438 194.328125 172.355469 194.308594 C 184.171875 189.796875 191.976562 178.460938 191.976562 165.808594 L 191.976562 149.464844 Z M 173.164062 172.445312 C 169.523438 178.800781 161.425781 181 155.070312 177.355469 C 153.019531 176.183594 151.324219 174.488281 150.15625 172.445312 C 149.535156 171.316406 149.9375 169.890625 151.070312 169.269531 C 152.171875 168.660156 153.558594 169.027344 154.203125 170.109375 C 156.5625 174.222656 161.804688 175.644531 165.914062 173.28125 C 167.238281 172.527344 168.328125 171.425781 169.085938 170.109375 C 169.753906 169 171.191406 168.644531 172.296875 169.3125 C 173.375 169.960938 173.746094 171.347656 173.140625 172.445312 Z M 173.164062 172.445312 "/><path style=" stroke:none;fill-rule:nonzero;fill:#ffffff;fill-opacity:1;" d="M 214.207031 143.027344 L 214.207031 144.785156 L 109.292969 144.785156 L 109.292969 143.027344 C 109.292969 137.546875 113.722656 133.101562 119.207031 133.085938 L 128.335938 133.085938 C 128.675781 133.164062 129.027344 133.164062 129.367188 133.085938 L 193.964844 133.085938 C 194.308594 133.164062 194.664062 133.164062 195.003906 133.085938 L 204.132812 133.085938 C 209.589844 133.085938 214.207031 137.636719 214.207031 143.027344 Z M 214.207031 143.027344 "/></g></svg>