<svg xmlns="http://www.w3.org/2000/svg" xmlns:xlink="http://www.w3.org/1999/xlink" width="500" zoomAndPan="magnify" viewBox="0 0 375 374.999991" height="500" preserveAspectRatio="xMidYMid meet" version="1.2"><defs><clipPath id="a705859b54"><path d="M 51.40625 51.40625 L 323.65625 51.40625 L 323.65625 323.65625 L 51.40625 323.65625 Z M 51.40625 51.40625 "/></clipPath></defs><g id="bc0ee5d6e4"><g clip-rule="nonzero" clip-path="url(#a705859b54)"><path style=" stroke:none;fill-rule:nonzero;fill:#000000;fill-opacity:1;" d="M 187.601562 51.410156 C 112.4375 51.410156 51.507812 112.339844 51.507812 187.5 C 51.507812 262.664062 112.4375 323.597656 187.601562 323.597656 C 262.761719 323.597656 323.695312 262.664062 323.695312 187.5 C 323.695312 112.339844 262.761719 51.410156 187.601562 51.410156 Z M 168.488281 182.316406 L 168.199219 281.140625 C 168.199219 281.140625 169.347656 289.15625 160.183594 289.15625 C 151.015625 289.15625 151.300781 280.566406 151.300781 280.566406 L 151.589844 182.316406 C 151.589844 182.316406 140.132812 169.136719 137.835938 167.132812 C 135.546875 165.128906 134.6875 156.25 134.6875 156.25 L 136.117188 106.121094 C 136.117188 106.121094 136.117188 100.535156 139.984375 100.535156 C 143.855469 100.535156 144.425781 104.976562 144.425781 104.976562 L 144.425781 141.066406 C 144.425781 141.066406 144.136719 148.515625 149.582031 148.515625 C 155.023438 148.515625 156.742188 142.5 156.742188 142.5 L 156.742188 103.542969 C 156.742188 103.542969 156.742188 98.960938 159.894531 98.960938 C 163.042969 98.960938 163.042969 102.683594 163.042969 102.683594 L 163.90625 141.925781 C 163.90625 141.925781 164.765625 148.511719 169.632812 148.511719 C 174.5 148.511719 174.789062 141.925781 174.789062 141.925781 L 174.789062 109.84375 C 174.789062 109.84375 175.359375 99.820312 179.660156 99.820312 C 183.957031 99.820312 183.957031 109.84375 183.957031 109.84375 C 183.957031 109.84375 183.667969 153.097656 183.667969 157.394531 C 183.667969 161.691406 180.800781 166.273438 180.800781 166.273438 Z M 211.738281 290.304688 C 211.738281 290.304688 183.097656 288.871094 183.097656 252.207031 C 183.097656 215.539062 199.996094 210.957031 199.996094 210.957031 L 199.996094 110.128906 C 199.996094 110.128906 201.140625 100.246094 209.878906 100.246094 C 218.613281 100.246094 219.1875 111.847656 219.1875 111.847656 L 219.1875 210.957031 C 219.1875 210.957031 236.085938 215.828125 236.085938 252.492188 C 236.085938 289.15625 211.738281 290.304688 211.738281 290.304688 Z M 211.738281 290.304688 "/></g></g></svg>