<svg xmlns="http://www.w3.org/2000/svg" xmlns:xlink="http://www.w3.org/1999/xlink" width="500" zoomAndPan="magnify" viewBox="0 0 375 374.999991" height="500" preserveAspectRatio="xMidYMid meet" version="1.2"><defs><clipPath id="078262e31a"><path d="M 51.582031 278 L 319 278 L 319 286.621094 L 51.582031 286.621094 Z M 51.582031 278 "/></clipPath></defs><g id="e9842ba002"><path style=" stroke:none;fill-rule:nonzero;fill:#000000;fill-opacity:1;" d="M 286.578125 262.867188 L 102.183594 262.867188 C 100.195312 262.867188 98.582031 261.308594 98.457031 259.378906 L 96.347656 223.65625 C 96.285156 222.597656 96.65625 221.601562 97.339844 220.855469 C 98.023438 220.109375 99.015625 219.671875 100.070312 219.671875 L 152.71875 219.671875 C 157.5 219.671875 162.03125 217.308594 164.765625 213.324219 C 173.207031 201.0625 181.402344 188.367188 189.039062 175.546875 C 200.527344 156.375 211.328125 136.398438 221.015625 116.234375 C 221.882812 114.367188 224.117188 113.621094 225.980469 114.492188 C 227.84375 115.363281 228.589844 117.601562 227.71875 119.46875 C 217.910156 139.820312 207.046875 159.988281 195.433594 179.40625 C 187.675781 192.289062 179.417969 205.171875 170.910156 217.558594 C 166.8125 223.53125 160.046875 227.078125 152.78125 227.078125 L 104.105469 227.078125 L 105.785156 255.335938 L 282.914062 255.335938 L 282.914062 220.667969 C 282.914062 218.613281 284.589844 216.933594 286.636719 216.933594 C 288.6875 216.933594 290.363281 218.613281 290.363281 220.667969 L 290.363281 259.070312 C 290.300781 261.246094 288.625 262.867188 286.578125 262.867188 Z M 286.578125 262.867188 "/><path style=" stroke:none;fill-rule:nonzero;fill:#000000;fill-opacity:1;" d="M 164.828125 262.867188 C 162.777344 262.867188 161.101562 261.183594 161.101562 259.132812 C 161.101562 240.957031 161.597656 227.949219 162.589844 220.542969 C 163.210938 215.9375 164.019531 212.078125 167.433594 211.769531 C 169.484375 211.582031 171.285156 213.074219 171.46875 215.128906 C 171.53125 216.125 171.285156 217.058594 170.664062 217.742188 C 170.226562 219.175781 168.550781 226.582031 168.550781 259.132812 C 168.550781 261.246094 166.875 262.867188 164.828125 262.867188 Z M 168.117188 219.175781 Z M 169.296875 218.925781 C 168.925781 219.113281 168.550781 219.175781 168.117188 219.238281 C 168.550781 219.175781 168.988281 219.050781 169.296875 218.925781 Z M 169.296875 218.925781 "/><path style=" stroke:none;fill-rule:nonzero;fill:#000000;fill-opacity:1;" d="M 137.695312 262.867188 L 126.332031 262.867188 C 125.214844 262.867188 124.222656 262.367188 123.476562 261.558594 C 122.796875 260.75 122.484375 259.628906 122.671875 258.507812 L 124.84375 245.5 C 125.09375 244.007812 126.210938 242.824219 127.699219 242.453125 C 129.191406 242.140625 130.679688 242.699219 131.550781 243.945312 L 133.101562 246.1875 L 160.171875 217.617188 C 161.597656 216.125 163.957031 216.0625 165.449219 217.496094 C 166.9375 218.925781 167 221.289062 165.570312 222.785156 L 137.445312 252.410156 L 140.675781 256.890625 C 141.484375 258.011719 141.605469 259.503906 140.984375 260.75 C 140.363281 262.117188 139.125 262.867188 137.695312 262.867188 Z M 137.695312 262.867188 "/><path style=" stroke:none;fill-rule:nonzero;fill:#000000;fill-opacity:1;" d="M 313.023438 248.613281 C 312.464844 248.613281 311.90625 248.488281 311.347656 248.238281 C 276.890625 230.8125 211.390625 101.109375 208.597656 95.570312 C 207.664062 93.703125 208.410156 91.460938 210.273438 90.527344 C 212.136719 89.59375 214.371094 90.34375 215.300781 92.210938 C 215.488281 92.519531 232.3125 126.003906 253.113281 161.105469 C 287.445312 219.175781 305.574219 236.914062 314.761719 241.519531 C 316.625 242.453125 317.308594 244.691406 316.441406 246.558594 C 315.695312 247.867188 314.390625 248.613281 313.023438 248.613281 Z M 313.023438 248.613281 "/><path style=" stroke:none;fill-rule:nonzero;fill:#000000;fill-opacity:1;" d="M 312.527344 256.703125 C 311.597656 256.703125 310.726562 256.457031 309.859375 256.019531 C 306.507812 254.089844 306.132812 249.234375 308.867188 244.445312 C 311.597656 239.652344 316.003906 237.597656 319.359375 239.464844 C 322.710938 241.394531 323.082031 246.25 320.351562 251.039062 C 318.300781 254.652344 315.261719 256.703125 312.527344 256.703125 Z M 317.121094 249.234375 Z M 317.121094 249.234375 "/><path style=" stroke:none;fill-rule:nonzero;fill:#000000;fill-opacity:1;" d="M 269.628906 262.867188 C 268.570312 262.867188 267.578125 262.429688 266.832031 261.558594 C 239.265625 229.753906 223.1875 188.988281 221.636719 146.855469 L 220.578125 118.039062 C 220.578125 117.355469 220.703125 116.605469 221.078125 115.984375 L 235.667969 91.152344 C 236.722656 89.347656 239.019531 88.785156 240.757812 89.84375 C 242.558594 90.902344 243.117188 93.207031 242.0625 94.949219 L 228.09375 118.847656 L 229.085938 146.542969 C 230.574219 186.996094 245.972656 226.082031 272.421875 256.640625 C 273.785156 258.199219 273.601562 260.5625 272.046875 261.933594 C 271.367188 262.617188 270.496094 262.867188 269.628906 262.867188 Z M 269.628906 262.867188 "/><path style=" stroke:none;fill-rule:nonzero;fill:#000000;fill-opacity:1;" d="M 176.5625 262.867188 C 175.195312 262.867188 173.953125 262.117188 173.269531 260.875 C 172.339844 259.070312 173.023438 256.765625 174.824219 255.832031 C 177.058594 254.652344 179.167969 253.34375 181.15625 251.851562 C 186.558594 247.867188 192.703125 241.953125 203.445312 217.742188 C 209.902344 203.242188 213.75 194.464844 217.039062 180.773438 C 219.710938 169.570312 221.261719 158.121094 221.574219 146.605469 C 221.636719 144.550781 223.3125 142.933594 225.421875 142.996094 C 227.472656 143.058594 229.085938 144.800781 229.023438 146.855469 C 228.652344 158.867188 227.097656 170.878906 224.242188 182.578125 C 220.828125 196.957031 216.605469 206.417969 210.210938 220.855469 C 199.84375 244.195312 193.074219 252.347656 185.5 257.949219 C 183.203125 259.628906 180.71875 261.183594 178.238281 262.492188 C 177.742188 262.742188 177.121094 262.867188 176.5625 262.867188 Z M 176.5625 262.867188 "/><path style=" stroke:none;fill-rule:nonzero;fill:#000000;fill-opacity:1;" d="M 202.078125 262.867188 C 201.457031 262.867188 200.835938 262.679688 200.214844 262.367188 C 198.414062 261.371094 197.792969 259.070312 198.851562 257.265625 C 225.734375 210.210938 220.703125 173.988281 220.640625 173.679688 C 220.332031 171.625 221.757812 169.757812 223.746094 169.445312 C 225.792969 169.136719 227.65625 170.503906 227.96875 172.558594 C 228.214844 174.113281 233.554688 211.519531 205.304688 261 C 204.625 262.242188 203.382812 262.867188 202.078125 262.867188 Z M 202.078125 262.867188 "/><path style=" stroke:none;fill-rule:nonzero;fill:#000000;fill-opacity:1;" d="M 250.878906 261.621094 C 249.636719 261.621094 248.457031 261 247.710938 259.878906 C 216.980469 211.894531 220.394531 174.300781 220.578125 172.683594 C 220.765625 170.628906 222.628906 169.136719 224.675781 169.324219 C 226.726562 169.507812 228.214844 171.375 228.03125 173.429688 C 227.96875 173.804688 224.800781 210.148438 254.042969 255.832031 C 255.160156 257.574219 254.664062 259.878906 252.925781 261 C 252.304688 261.433594 251.558594 261.621094 250.878906 261.621094 Z M 250.878906 261.621094 "/><path style=" stroke:none;fill-rule:nonzero;fill:#000000;fill-opacity:1;" d="M 224.304688 121.648438 L 152.84375 121.648438 C 150.796875 121.648438 149.121094 119.96875 149.121094 117.914062 C 149.121094 115.859375 150.796875 114.179688 152.84375 114.179688 L 224.304688 114.179688 C 226.355469 114.179688 228.03125 115.859375 228.03125 117.914062 C 228.03125 119.96875 226.355469 121.648438 224.304688 121.648438 Z M 224.304688 121.648438 "/><path style=" stroke:none;fill-rule:nonzero;fill:#000000;fill-opacity:1;" d="M 70.890625 248.613281 C 69.898438 248.613281 68.90625 248.238281 68.160156 247.429688 C 66.730469 245.9375 66.855469 243.570312 68.347656 242.140625 C 80.761719 230.5625 91.8125 217.992188 101.1875 204.734375 C 111.496094 190.234375 117.394531 178.410156 126.332031 160.484375 C 132.046875 149.09375 139.125 134.90625 149.304688 115.984375 L 149.800781 115.050781 C 154.148438 107.085938 158.554688 99.054688 163.027344 91.277344 C 164.019531 89.472656 166.316406 88.847656 168.117188 89.90625 C 169.917969 90.902344 170.539062 93.207031 169.484375 95.011719 C 165.074219 102.789062 160.667969 110.757812 156.320312 118.660156 L 155.824219 119.59375 C 145.640625 138.390625 138.625 152.519531 132.976562 163.84375 C 123.851562 182.082031 117.890625 194.15625 107.273438 209.09375 C 97.589844 222.722656 86.226562 235.730469 73.4375 247.617188 C 72.753906 248.300781 71.824219 248.613281 70.890625 248.613281 Z M 70.890625 248.613281 "/><path style=" stroke:none;fill-rule:nonzero;fill:#000000;fill-opacity:1;" d="M 152.65625 121.523438 C 151.417969 121.523438 150.238281 120.902344 149.492188 119.78125 L 134.839844 96.691406 C 133.722656 94.949219 134.21875 92.644531 135.957031 91.523438 C 137.695312 90.40625 139.992188 90.902344 141.109375 92.644531 L 155.761719 115.734375 C 156.878906 117.476562 156.382812 119.78125 154.644531 120.902344 C 154.023438 121.335938 153.339844 121.523438 152.65625 121.523438 Z M 152.65625 121.523438 "/><path style=" stroke:none;fill-rule:nonzero;fill:#000000;fill-opacity:1;" d="M 78.339844 245.9375 C 78.339844 246.628906 78.292969 247.3125 78.199219 247.988281 C 78.101562 248.667969 77.960938 249.324219 77.773438 249.960938 C 77.585938 250.601562 77.359375 251.207031 77.085938 251.78125 C 76.8125 252.355469 76.503906 252.886719 76.160156 253.375 C 75.8125 253.863281 75.4375 254.300781 75.03125 254.683594 C 74.625 255.066406 74.195312 255.390625 73.742188 255.65625 C 73.289062 255.917969 72.824219 256.117188 72.34375 256.253906 C 71.863281 256.386719 71.378906 256.457031 70.890625 256.457031 C 70.402344 256.457031 69.917969 256.386719 69.4375 256.253906 C 68.957031 256.117188 68.492188 255.917969 68.039062 255.65625 C 67.589844 255.390625 67.160156 255.066406 66.753906 254.683594 C 66.34375 254.300781 65.96875 253.863281 65.625 253.375 C 65.277344 252.886719 64.96875 252.355469 64.695312 251.78125 C 64.425781 251.207031 64.195312 250.601562 64.007812 249.960938 C 63.820312 249.324219 63.679688 248.667969 63.585938 247.988281 C 63.488281 247.3125 63.441406 246.628906 63.441406 245.9375 C 63.441406 245.246094 63.488281 244.5625 63.585938 243.886719 C 63.679688 243.207031 63.820312 242.550781 64.007812 241.910156 C 64.195312 241.273438 64.425781 240.667969 64.695312 240.09375 C 64.96875 239.519531 65.277344 238.988281 65.625 238.5 C 65.96875 238.011719 66.34375 237.574219 66.753906 237.191406 C 67.160156 236.808594 67.589844 236.484375 68.039062 236.21875 C 68.492188 235.957031 68.957031 235.753906 69.4375 235.621094 C 69.917969 235.488281 70.402344 235.417969 70.890625 235.417969 C 71.378906 235.417969 71.863281 235.488281 72.34375 235.621094 C 72.824219 235.753906 73.289062 235.957031 73.742188 236.21875 C 74.195312 236.484375 74.625 236.808594 75.03125 237.191406 C 75.4375 237.574219 75.8125 238.011719 76.160156 238.5 C 76.503906 238.988281 76.8125 239.519531 77.085938 240.09375 C 77.359375 240.667969 77.585938 241.273438 77.773438 241.910156 C 77.960938 242.550781 78.101562 243.207031 78.199219 243.886719 C 78.292969 244.5625 78.339844 245.246094 78.339844 245.9375 Z M 78.339844 245.9375 "/><g clip-rule="nonzero" clip-path="url(#078262e31a)"><path style=" stroke:none;fill-rule:nonzero;fill:#000000;fill-opacity:1;" d="M 315.261719 286.453125 L 55.308594 286.453125 C 53.257812 286.453125 51.582031 284.773438 51.582031 282.71875 C 51.582031 280.664062 53.257812 278.984375 55.308594 278.984375 L 315.261719 278.984375 C 317.308594 278.984375 318.984375 280.664062 318.984375 282.71875 C 318.984375 284.773438 317.308594 286.453125 315.261719 286.453125 Z M 315.261719 286.453125 "/></g><path style=" stroke:none;fill-rule:nonzero;fill:#000000;fill-opacity:1;" d="M 124.71875 208.71875 C 123.972656 208.71875 123.292969 208.53125 122.609375 208.097656 C 120.933594 206.914062 120.496094 204.609375 121.617188 202.929688 C 131.796875 187.929688 145.207031 155.382812 145.332031 155.070312 C 146.140625 153.140625 148.3125 152.269531 150.175781 153.015625 C 152.039062 153.761719 152.96875 156.003906 152.222656 157.871094 C 151.664062 159.238281 138.378906 191.480469 127.761719 207.101562 C 127.078125 208.160156 125.960938 208.71875 124.71875 208.71875 Z M 124.71875 208.71875 "/></g></svg>