<svg xmlns="http://www.w3.org/2000/svg" xmlns:xlink="http://www.w3.org/1999/xlink" width="500" zoomAndPan="magnify" viewBox="0 0 375 374.999991" height="500" preserveAspectRatio="xMidYMid meet" version="1.2"><defs><clipPath id="78ecf9ca3d"><path d="M 181 114.597656 L 323.917969 114.597656 L 323.917969 234 L 181 234 Z M 181 114.597656 "/></clipPath><clipPath id="f977eedead"><path d="M 301 188 L 323.917969 188 L 323.917969 214 L 301 214 Z M 301 188 "/></clipPath><clipPath id="10e4890835"><path d="M 66 201 L 126 201 L 126 260.097656 L 66 260.097656 Z M 66 201 "/></clipPath><clipPath id="38a06621c8"><path d="M 236 201 L 296 201 L 296 260.097656 L 236 260.097656 Z M 236 201 "/></clipPath></defs><g id="86069b0912"><g clip-rule="nonzero" clip-path="url(#78ecf9ca3d)"><path style=" stroke:none;fill-rule:nonzero;fill:#000000;fill-opacity:1;" d="M 320.402344 233.714844 L 291.945312 233.714844 C 290.222656 233.714844 288.828125 232.324219 288.828125 230.605469 C 288.828125 228.886719 290.222656 227.492188 291.945312 227.492188 L 317.285156 227.492188 L 317.285156 192.667969 C 317.285156 192.328125 317.277344 191.984375 317.257812 191.648438 C 316.710938 180.296875 307.375 171.425781 296.007812 171.425781 L 282.769531 171.425781 C 281.667969 171.425781 280.652344 170.847656 280.089844 169.902344 L 254.117188 126.289062 C 252.101562 122.902344 248.398438 120.800781 244.457031 120.800781 L 199.195312 120.800781 C 193 120.800781 187.957031 125.835938 187.957031 132.023438 L 187.957031 227.492188 L 239.160156 227.492188 C 240.878906 227.492188 242.277344 228.886719 242.277344 230.605469 C 242.277344 232.320312 240.878906 233.714844 239.160156 233.714844 L 184.839844 233.714844 C 183.121094 233.714844 181.722656 232.320312 181.722656 230.605469 L 181.722656 132.023438 C 181.722656 122.402344 189.5625 114.578125 199.195312 114.578125 L 244.457031 114.578125 C 250.585938 114.578125 256.339844 117.84375 259.472656 123.105469 L 284.542969 165.199219 L 296.007812 165.199219 C 310.707031 165.199219 322.777344 176.675781 323.484375 191.320312 C 323.507812 191.746094 323.519531 192.207031 323.519531 192.667969 L 323.519531 230.605469 C 323.519531 232.324219 322.125 233.714844 320.402344 233.714844 Z M 320.402344 233.714844 "/></g><g clip-rule="nonzero" clip-path="url(#f977eedead)"><path style=" stroke:none;fill-rule:nonzero;fill:#000000;fill-opacity:1;" d="M 320.402344 213.75 L 304.761719 213.75 C 303.042969 213.75 301.644531 212.355469 301.644531 210.636719 L 301.644531 191.472656 C 301.644531 189.753906 303.042969 188.359375 304.761719 188.359375 L 320.371094 188.359375 C 322.023438 188.359375 323.386719 189.648438 323.480469 191.296875 C 323.507812 191.746094 323.519531 192.207031 323.519531 192.667969 L 323.519531 210.636719 C 323.519531 212.355469 322.125 213.75 320.402344 213.75 Z M 307.878906 207.527344 L 317.285156 207.527344 L 317.285156 194.582031 L 307.878906 194.582031 Z M 307.878906 207.527344 "/></g><path style=" stroke:none;fill-rule:nonzero;fill:#000000;fill-opacity:1;" d="M 184.839844 233.714844 L 122.414062 233.714844 C 120.691406 233.714844 119.296875 232.324219 119.296875 230.605469 C 119.296875 228.886719 120.691406 227.492188 122.414062 227.492188 L 181.722656 227.492188 L 181.722656 166.765625 L 57.550781 166.765625 L 57.550781 227.492188 L 69.628906 227.492188 C 71.351562 227.492188 72.746094 228.886719 72.746094 230.605469 C 72.746094 232.320312 71.351562 233.714844 69.628906 233.714844 L 54.433594 233.714844 C 52.710938 233.714844 51.316406 232.320312 51.316406 230.605469 L 51.316406 163.652344 C 51.316406 161.933594 52.710938 160.542969 54.433594 160.542969 L 184.839844 160.542969 C 186.5625 160.542969 187.957031 161.933594 187.957031 163.652344 L 187.957031 230.605469 C 187.957031 232.324219 186.5625 233.714844 184.839844 233.714844 Z M 184.839844 233.714844 "/><g clip-rule="nonzero" clip-path="url(#10e4890835)"><path style=" stroke:none;fill-rule:nonzero;fill:#000000;fill-opacity:1;" d="M 96.023438 260.070312 C 79.75 260.070312 66.511719 246.851562 66.511719 230.605469 C 66.511719 214.355469 79.75 201.136719 96.023438 201.136719 C 112.292969 201.136719 125.53125 214.355469 125.53125 230.605469 C 125.53125 246.851562 112.292969 260.070312 96.023438 260.070312 Z M 96.023438 207.363281 C 83.1875 207.363281 72.746094 217.789062 72.746094 230.605469 C 72.746094 243.417969 83.1875 253.847656 96.023438 253.847656 C 108.855469 253.847656 119.296875 243.417969 119.296875 230.605469 C 119.296875 217.789062 108.855469 207.363281 96.023438 207.363281 Z M 96.023438 207.363281 "/></g><g clip-rule="nonzero" clip-path="url(#38a06621c8)"><path style=" stroke:none;fill-rule:nonzero;fill:#000000;fill-opacity:1;" d="M 265.550781 260.070312 C 249.28125 260.070312 236.042969 246.851562 236.042969 230.605469 C 236.042969 214.355469 249.28125 201.136719 265.550781 201.136719 C 281.824219 201.136719 295.0625 214.355469 295.0625 230.605469 C 295.0625 246.851562 281.824219 260.070312 265.550781 260.070312 Z M 265.550781 207.363281 C 252.71875 207.363281 242.277344 217.789062 242.277344 230.605469 C 242.277344 243.417969 252.71875 253.847656 265.550781 253.847656 C 278.386719 253.847656 288.828125 243.417969 288.828125 230.605469 C 288.828125 217.789062 278.386719 207.363281 265.550781 207.363281 Z M 265.550781 207.363281 "/></g><path style=" stroke:none;fill-rule:nonzero;fill:#000000;fill-opacity:1;" d="M 265.550781 246.75 C 256.636719 246.75 249.382812 239.503906 249.382812 230.605469 C 249.382812 221.703125 256.636719 214.457031 265.550781 214.457031 C 274.46875 214.457031 281.722656 221.703125 281.722656 230.605469 C 281.722656 239.503906 274.46875 246.75 265.550781 246.75 Z M 265.550781 220.683594 C 260.074219 220.683594 255.617188 225.132812 255.617188 230.605469 C 255.617188 236.074219 260.074219 240.523438 265.550781 240.523438 C 271.03125 240.523438 275.488281 236.074219 275.488281 230.605469 C 275.488281 225.132812 271.03125 220.683594 265.550781 220.683594 Z M 265.550781 220.683594 "/><path style=" stroke:none;fill-rule:nonzero;fill:#000000;fill-opacity:1;" d="M 96.023438 246.75 C 87.105469 246.75 79.851562 239.503906 79.851562 230.605469 C 79.851562 221.703125 87.105469 214.457031 96.023438 214.457031 C 104.9375 214.457031 112.191406 221.703125 112.191406 230.605469 C 112.191406 239.503906 104.9375 246.75 96.023438 246.75 Z M 96.023438 220.683594 C 90.542969 220.683594 86.085938 225.132812 86.085938 230.605469 C 86.085938 236.074219 90.542969 240.523438 96.023438 240.523438 C 101.5 240.523438 105.957031 236.074219 105.957031 230.605469 C 105.957031 225.132812 101.5 220.683594 96.023438 220.683594 Z M 96.023438 220.683594 "/><path style=" stroke:none;fill-rule:nonzero;fill:#000000;fill-opacity:1;" d="M 184.839844 186.199219 L 54.433594 186.199219 C 52.710938 186.199219 51.316406 184.804688 51.316406 183.085938 C 51.316406 181.367188 52.710938 179.972656 54.433594 179.972656 L 184.839844 179.972656 C 186.5625 179.972656 187.957031 181.367188 187.957031 183.085938 C 187.957031 184.804688 186.5625 186.199219 184.839844 186.199219 Z M 184.839844 186.199219 "/><path style=" stroke:none;fill-rule:nonzero;fill:#000000;fill-opacity:1;" d="M 251.050781 166.765625 L 205.257812 166.765625 C 200.550781 166.765625 196.71875 162.941406 196.71875 158.238281 L 196.71875 134.792969 C 196.71875 130.09375 200.550781 126.265625 205.257812 126.265625 L 235.855469 126.265625 C 238.761719 126.265625 241.441406 127.722656 243.023438 130.160156 L 258.21875 153.605469 C 259.921875 156.230469 260.050781 159.566406 258.554688 162.3125 C 257.058594 165.058594 254.183594 166.765625 251.050781 166.765625 Z M 205.257812 132.492188 C 203.988281 132.492188 202.953125 133.523438 202.953125 134.792969 L 202.953125 158.238281 C 202.953125 159.507812 203.988281 160.542969 205.257812 160.542969 L 251.050781 160.542969 C 252.289062 160.542969 252.878906 159.699219 253.074219 159.339844 C 253.273438 158.980469 253.660156 158.027344 252.984375 156.988281 L 237.789062 133.542969 C 237.363281 132.886719 236.640625 132.492188 235.851562 132.492188 Z M 205.257812 132.492188 "/><path style=" stroke:none;fill-rule:nonzero;fill:#000000;fill-opacity:1;" d="M 223.628906 183.402344 L 204.835938 183.402344 C 203.113281 183.402344 201.71875 182.007812 201.71875 180.292969 C 201.71875 178.574219 203.113281 177.179688 204.835938 177.179688 L 223.628906 177.179688 C 225.351562 177.179688 226.746094 178.574219 226.746094 180.292969 C 226.746094 182.007812 225.351562 183.402344 223.628906 183.402344 Z M 223.628906 183.402344 "/></g></svg>