<svg xmlns="http://www.w3.org/2000/svg" shape-rendering="geometricPrecision" text-rendering="geometricPrecision" image-rendering="optimizeQuality" fill-rule="evenodd" clip-rule="evenodd" viewBox="0 0 415 512.56"><path fill-rule="nonzero" d="M41.673 0h336.176c.597 0 1.338.027 2.208.078 9.367.555 18.064 4.625 24.415 10.884 6.438 6.343 10.505 14.952 10.506 24.484H415c0 .514-.025 1.179-.072 1.981l-24.91 418.75c-1.668 28.222-15.349 42.414-33.95 49.571-17.692 6.806-39.285 6.812-58.873 6.812H110.391c-19.682 0-38.589-1.241-53.396-8.807-15.471-7.905-25.983-22.203-27.518-48.028l-.518-8.71H15.835v13.023a6.263 6.263 0 01-12.524 0v-19.285a6.263 6.263 0 016.262-6.262h18.641l-1.403-23.595H6.262A6.263 6.263 0 010 404.634v-19.285a6.263 6.263 0 0112.524 0v13.023h13.542L4.594 37.427a36.363 36.363 0 01-.071-1.984c0-9.522 4.075-18.129 10.526-24.485C21.4 4.701 30.095.634 39.463.078A39.097 39.097 0 0141.673 0zM77.14 261.551a4.443 4.443 0 01-.452-8.872c6.86-.374 12.563-2.464 17.28-6 4.81-3.608 8.714-8.804 11.871-15.292a4.451 4.451 0 018.135.303c4.121 8.206 10.601 14.12 17.885 17.333 4.149 1.831 8.534 2.782 12.859 2.78 4.287-.002 8.553-.94 12.505-2.884l.224-.103c6.077-3.05 11.446-8.56 15.088-16.815a4.448 4.448 0 018.025-.243c3.902 7.046 8.286 12.345 12.976 15.836 4.084 3.04 8.414 4.708 12.86 4.957 4.488.251 9.211-.935 14.037-3.597 6.269-3.46 12.668-9.365 18.952-17.806a4.439 4.439 0 017.614.821c3.684 8.138 9.253 13.922 15.617 17.126 3.698 1.863 7.666 2.861 11.678 2.947 4.026.086 8.134-.744 12.099-2.537 7.184-3.245 13.893-9.667 18.867-19.543a4.44 4.44 0 018.103.384c3.181 8.086 7.136 14.075 11.963 17.691 4.542 3.401 10.053 4.734 16.638 3.761a4.45 4.45 0 015.046 3.758 4.45 4.45 0 01-3.758 5.045c-9.043 1.336-16.749-.599-23.248-5.466-4.381-3.28-8.118-7.866-11.267-13.651-5.331 7.685-11.804 13.017-18.691 16.128-5.169 2.336-10.579 3.416-15.926 3.302-5.361-.114-10.63-1.432-15.506-3.887-6.344-3.195-12.03-8.312-16.386-15.206-5.743 6.718-11.633 11.68-17.517 14.926-6.308 3.481-12.637 5.021-18.804 4.675-6.211-.348-12.158-2.6-17.661-6.696-4.065-3.026-7.882-7.061-11.375-12.073-4.215 6.482-9.562 11.139-15.467 14.101l-.249.133c-5.192 2.554-10.799 3.784-16.437 3.788-5.597.003-11.204-1.199-16.442-3.51-7.004-3.09-13.406-8.172-18.31-15.009-3.021 4.623-6.555 8.531-10.676 11.621-6.124 4.592-13.438 7.298-22.15 7.774zm0-50.506a4.443 4.443 0 01-.452-8.872c6.86-.374 12.563-2.464 17.28-6.001 4.81-3.606 8.714-8.802 11.871-15.291a4.453 4.453 0 015.95-2.054 4.429 4.429 0 012.185 2.357c4.122 8.207 10.603 14.121 17.885 17.334 4.148 1.83 8.533 2.782 12.859 2.779 4.297-.001 8.569-.94 12.522-2.883 6.162-3.029 11.612-8.571 15.295-16.919a4.448 4.448 0 018.025-.244c3.903 7.048 8.286 12.346 12.977 15.838 4.084 3.04 8.413 4.708 12.859 4.956 4.488.252 9.21-.934 14.037-3.596 6.268-3.459 12.668-9.365 18.952-17.807a4.44 4.44 0 017.614.82c3.684 8.138 9.253 13.923 15.617 17.128 3.698 1.863 7.666 2.86 11.677 2.946 4.026.086 8.134-.743 12.099-2.536 7.184-3.245 13.894-9.667 18.868-19.544a4.442 4.442 0 018.103.384c3.181 8.086 7.136 14.076 11.963 17.69 4.541 3.403 10.053 4.736 16.638 3.763a4.45 4.45 0 015.046 3.758 4.45 4.45 0 01-3.758 5.045c-9.043 1.336-16.75-.599-23.248-5.467-4.38-3.28-8.118-7.866-11.267-13.651-5.331 7.686-11.805 13.017-18.692 16.128-5.17 2.337-10.579 3.417-15.927 3.302-5.359-.115-10.628-1.431-15.504-3.886-6.344-3.196-12.029-8.312-16.386-15.206-5.743 6.718-11.634 11.68-17.517 14.926-6.309 3.481-12.636 5.02-18.804 4.675-6.21-.348-12.157-2.6-17.659-6.696-4.066-3.026-7.884-7.061-11.377-12.074-4.279 6.58-9.722 11.278-15.735 14.235-5.193 2.552-10.792 3.784-16.418 3.787-5.597.004-11.204-1.199-16.442-3.509-7.004-3.09-13.406-8.172-18.31-15.01-3.021 4.624-6.555 8.532-10.676 11.621-6.124 4.591-13.438 7.298-22.15 7.774zm154.435 190.08v14.547a4.175 4.175 0 01-4.175 4.175h-19.983a4.175 4.175 0 01-4.175-4.175v-14.547h-59.449c-19.703 0-38.441-1.254-53.149-8.826-15.348-7.9-25.841-22.174-27.765-47.921L43.553 85.901a32.914 32.914 0 01-.088-2.286c0-9.358 4.04-17.809 10.413-24.078 6.262-6.158 14.814-10.208 23.979-10.893a38.26 38.26 0 012.785-.11h258.24c.87 0 1.799.038 2.776.11 9.17.685 17.724 4.748 23.986 10.912 6.375 6.274 10.415 14.73 10.415 24.07 0 .742-.032 1.551-.097 2.422l-19.354 258.847c-1.71 28.121-15.372 42.275-33.94 49.419-17.691 6.806-39.285 6.811-58.873 6.811h-32.22zm-19.983 0v10.372h11.633v-10.372h-11.633zm.075-61.314v-6.358l-26.876-8.507a5.563 5.563 0 113.35-10.609l30.553 9.67a5.57 5.57 0 014.106 5.373v10.431h4.033c2.848 0 5.449 1.172 7.34 3.06l.008-.008a10.373 10.373 0 013.052 7.348v39.78h26.562c18.676 0 39.264-.005 54.916-6.026 14.652-5.638 25.444-16.997 26.814-39.78l19.347-258.963c.035-.474.053-1.009.053-1.596 0-6.219-2.74-11.898-7.065-16.155-4.439-4.37-10.512-7.251-17.028-7.738a26.79 26.79 0 00-1.95-.066H80.642c-.714 0-1.37.023-1.958.066-6.515.487-12.587 3.357-17.022 7.718-4.323 4.252-7.064 9.932-7.064 16.164 0 .561.016 1.069.047 1.521l19.324 258.415c1.583 21.189 9.795 32.717 21.762 38.877 12.605 6.488 29.801 7.563 48.062 7.563h53.529v-39.734c0-2.858 1.173-5.465 3.065-7.364l.025-.025c1.898-1.887 4.501-3.057 7.355-3.057h3.9zm15.166 8.35h-19.066c-.583 0-1.107.231-1.477.602l-.017.017c-.371.37-.601.894-.601 1.477v39.734h23.211v-39.78c0-.56-.233-1.072-.605-1.445v-.017a2.04 2.04 0 00-1.445-.588zM377.849 11.133H41.673c-.662 0-1.181.012-1.558.034-6.627.394-12.784 3.274-17.282 7.706-4.398 4.332-7.177 10.162-7.177 16.57 0 .583.009 1.026.027 1.332l24.883 418.298c1.259 21.164 9.451 32.665 21.474 38.809 12.685 6.482 30.07 7.544 48.351 7.544h186.804c18.675 0 39.264-.005 54.915-6.027 14.69-5.652 25.501-17.053 26.826-39.951l24.903-418.673c.018-.306.027-.747.027-1.329h.022c0-6.39-2.788-12.222-7.2-16.569-4.499-4.433-10.657-7.318-17.283-7.71a28.08 28.08 0 00-1.556-.034z"/></svg>